<?xml version="1.0" encoding="UTF-8"?>
<svg version="1.1" xmlns="http://www.w3.org/2000/svg" width="495" height="504">
<path d="M0 0 C4.26349537 0.48071626 7.95039861 1.72982283 11.91015625 3.328125 C13.43030869 3.89246253 14.95111031 4.45505544 16.47265625 5.015625 C18.17421875 5.6653125 18.17421875 5.6653125 19.91015625 6.328125 C19.91015625 6.988125 19.91015625 7.648125 19.91015625 8.328125 C20.59078125 8.534375 21.27140625 8.740625 21.97265625 8.953125 C30.77173017 13.07184045 36.02015442 20.93740398 39.9453125 29.6171875 C42.12921866 35.65310906 42.99954588 41.99670465 43.91015625 48.328125 C45.51695141 47.22778685 47.12049418 46.12269836 48.72265625 45.015625 C50.06263672 44.09330078 50.06263672 44.09330078 51.4296875 43.15234375 C53.87623898 41.45480558 53.87623898 41.45480558 55.609375 39.59765625 C56.91015625 38.328125 56.91015625 38.328125 58.91015625 38.328125 C59.27753906 37.48507813 59.27753906 37.48507813 59.65234375 36.625 C61.13942164 33.90946646 62.95078407 31.86421062 65.03515625 29.578125 C65.75960938 28.77890625 66.4840625 27.9796875 67.23046875 27.15625 C67.78476562 26.55296875 68.3390625 25.9496875 68.91015625 25.328125 C72.68984198 26.09835507 74.38975256 27.35764923 76.91015625 30.328125 C76.91015625 30.988125 76.91015625 31.648125 76.91015625 32.328125 C77.57015625 32.328125 78.23015625 32.328125 78.91015625 32.328125 C83.72941386 45.71017068 85.55965572 59.91056377 79.91015625 73.328125 C79.91015625 74.318125 79.91015625 75.308125 79.91015625 76.328125 C86.68199892 74.52230029 93.62945344 72.46847641 99.91015625 69.328125 C101.90975637 69.288133 103.91062867 69.28465701 105.91015625 69.328125 C108.67175276 73.64311954 108.41378324 77.77190059 107.4453125 82.6875 C105.75812644 89.11677704 102.87446993 94.03886829 98.91015625 99.328125 C98.25015625 100.235625 97.59015625 101.143125 96.91015625 102.078125 C94.43207331 104.86596831 91.88163879 107.06721437 88.91015625 109.328125 C88.25015625 109.328125 87.59015625 109.328125 86.91015625 109.328125 C86.91015625 109.988125 86.91015625 110.648125 86.91015625 111.328125 C84.60015625 112.648125 82.29015625 113.968125 79.91015625 115.328125 C80.34585937 115.83859375 80.7815625 116.3490625 81.23046875 116.875 C88.75576477 126.06172501 93.04908783 135.64773233 96.05078125 147.1015625 C96.88358595 150.22836558 97.87965949 153.26197479 98.91015625 156.328125 C99.02488281 157.06675781 99.13960938 157.80539063 99.2578125 158.56640625 C99.77288806 160.51930617 99.77288806 160.51930617 101.84375 161.49609375 C102.67003906 161.83253906 103.49632812 162.16898438 104.34765625 162.515625 C112.98156168 166.5480794 121.17143838 173.3722609 124.91015625 182.328125 C130.9426399 199.96766466 131.18476279 218.93048916 122.91015625 235.953125 C121.15511939 239.28952319 119.38152916 242.46724223 116.91015625 245.328125 C116.25015625 245.328125 115.59015625 245.328125 114.91015625 245.328125 C113.66724022 249.17444624 114.53719063 251.12705069 116.0078125 254.84765625 C121.56136565 270.11391706 121.16355899 287.40944419 118.91015625 303.328125 C118.58015625 303.658125 118.25015625 303.988125 117.91015625 304.328125 C117.7497347 305.99175588 117.63248607 307.65961378 117.53515625 309.328125 C117.16110957 313.86928546 116.30326303 317.67592274 114.73828125 321.93359375 C112.56524263 328.21695541 111.17157158 334.80684577 109.91015625 341.328125 C109.25015625 341.328125 108.59015625 341.328125 107.91015625 341.328125 C107.79542969 342.49730469 107.68070312 343.66648437 107.5625 344.87109375 C105.43398511 361.67418788 94.897596 380.7085987 83.91015625 393.328125 C83.39324219 394.06160156 82.87632812 394.79507812 82.34375 395.55078125 C81.87066406 396.13730469 81.39757812 396.72382813 80.91015625 397.328125 C80.25015625 397.328125 79.59015625 397.328125 78.91015625 397.328125 C78.91015625 397.988125 78.91015625 398.648125 78.91015625 399.328125 C72.61296106 405.34544485 64.74990702 412.09949538 55.91015625 413.328125 C55.91015625 413.988125 55.91015625 414.648125 55.91015625 415.328125 C47.54848728 417.87298077 39.27332973 419.44220359 30.55078125 420.08203125 C27.85929301 420.28564565 27.85929301 420.28564565 25.05078125 420.90625 C21.31200537 421.40847363 18.14496548 421.03476348 14.41015625 420.515625 C13.71962158 420.421604 13.02908691 420.32758301 12.31762695 420.23071289 C10.8890898 420.0347927 9.46110253 419.83482165 8.03369141 419.63085938 C5.97682135 419.33762888 3.91856967 419.05762489 1.859375 418.78125 C-7.63448661 417.47991071 -7.63448661 417.47991071 -11.08984375 416.328125 C-12.12109375 416.204375 -13.15234375 416.080625 -14.21484375 415.953125 C-17.9413883 415.35206943 -21.16346262 414.38778329 -24.70703125 413.14453125 C-27.1294438 412.31455711 -29.56618005 411.59657007 -32.02734375 410.890625 C-37.19178769 409.35481964 -42.12165555 407.40372363 -47.08984375 405.328125 C-48.07339844 404.92335938 -49.05695313 404.51859375 -50.0703125 404.1015625 C-56.11917934 401.60228419 -62.12596528 399.02391855 -68.08984375 396.328125 C-68.08984375 395.668125 -68.08984375 395.008125 -68.08984375 394.328125 C-68.62609375 394.225 -69.16234375 394.121875 -69.71484375 394.015625 C-72.71486419 393.14719803 -75.32779725 391.77192204 -78.08984375 390.328125 C-78.08984375 389.668125 -78.08984375 389.008125 -78.08984375 388.328125 C-78.64414063 388.2353125 -79.1984375 388.1425 -79.76953125 388.046875 C-88.61594017 385.30657325 -96.49808428 376.56324076 -103.08984375 370.328125 C-103.67765625 369.78800781 -104.26546875 369.24789063 -104.87109375 368.69140625 C-106.08984375 367.328125 -106.08984375 367.328125 -106.08984375 365.328125 C-106.74984375 365.328125 -107.40984375 365.328125 -108.08984375 365.328125 C-109.77447794 363.44957608 -111.31460928 361.58087562 -112.83984375 359.578125 C-113.50765869 358.70643677 -113.50765869 358.70643677 -114.18896484 357.81713867 C-124.08984375 344.53875646 -124.08984375 344.53875646 -124.08984375 338.328125 C-124.85361328 338.56595703 -124.85361328 338.56595703 -125.6328125 338.80859375 C-137.11170315 341.23576777 -148.17171339 338.84200604 -159.08984375 335.328125 C-159.08984375 334.668125 -159.08984375 334.008125 -159.08984375 333.328125 C-159.77433594 333.26496094 -160.45882812 333.20179688 -161.1640625 333.13671875 C-165.12432734 332.04222633 -167.7195482 329.92053941 -170.90234375 327.390625 C-171.49982422 326.93494141 -172.09730469 326.47925781 -172.71289062 326.00976562 C-174.21574259 324.83668232 -175.65857745 323.58755553 -177.08984375 322.328125 C-177.08984375 321.668125 -177.08984375 321.008125 -177.08984375 320.328125 C-177.65960938 320.10898437 -178.229375 319.88984375 -178.81640625 319.6640625 C-187.03731655 314.83321831 -194.17154959 301.23502653 -196.62890625 292.38720703 C-199.74554355 279.37339115 -201.34939486 263.69873964 -194.515625 251.5234375 C-193.80986328 250.43675781 -193.80986328 250.43675781 -193.08984375 249.328125 C-192.48986108 246.4782073 -192.66827566 245.0029267 -194.21484375 242.52734375 C-195.11550057 241.29149931 -196.04209484 240.07405489 -196.99609375 238.87890625 C-198.08984375 237.328125 -198.08984375 237.328125 -198.08984375 235.328125 C-198.74984375 235.328125 -199.40984375 235.328125 -200.08984375 235.328125 C-200.92970459 233.39344558 -201.76152402 231.45527371 -202.58984375 229.515625 C-203.05390625 228.43667969 -203.51796875 227.35773438 -203.99609375 226.24609375 C-205.08984375 223.328125 -205.08984375 223.328125 -205.08984375 220.328125 C-205.74984375 220.328125 -206.40984375 220.328125 -207.08984375 220.328125 C-207.21359375 219.3175 -207.33734375 218.306875 -207.46484375 217.265625 C-207.95672804 213.43582619 -207.95672804 213.43582619 -209.1171875 210.3359375 C-210.65446921 205.07935809 -210.34012071 199.69417969 -210.27734375 194.265625 C-210.27669922 193.20279297 -210.27605469 192.13996094 -210.27539062 191.04492188 C-210.24725072 186.03914595 -210.15478059 181.24387347 -209.08984375 176.328125 C-208.42984375 176.328125 -207.76984375 176.328125 -207.08984375 176.328125 C-207.08984375 173.688125 -207.08984375 171.048125 -207.08984375 168.328125 C-206.42984375 168.328125 -205.76984375 168.328125 -205.08984375 168.328125 C-204.99832031 167.33296875 -204.90679687 166.3378125 -204.8125 165.3125 C-204.18521859 160.97062171 -202.52934586 157.44809608 -200.52734375 153.578125 C-199.99923096 152.54075195 -199.99923096 152.54075195 -199.46044922 151.48242188 C-196.2752217 145.38599529 -192.7162843 139.45413425 -188.08984375 134.328125 C-187.42984375 134.328125 -186.76984375 134.328125 -186.08984375 134.328125 C-185.98671875 133.750625 -185.88359375 133.173125 -185.77734375 132.578125 C-184.99102489 130.00471783 -183.73793352 128.43131731 -182.08984375 126.328125 C-182.92128906 125.94140625 -183.75273437 125.5546875 -184.609375 125.15625 C-186.23939453 124.37507813 -186.23939453 124.37507813 -187.90234375 123.578125 C-189.52076172 122.81242187 -189.52076172 122.81242187 -191.171875 122.03125 C-194.05299085 120.34963486 -195.43635984 119.18362964 -197.08984375 116.328125 C-197.80111104 112.23833809 -197.31273278 110.68335438 -195.08984375 107.140625 C-191.383191 103.1736736 -187.04563943 101.63439988 -181.71484375 101.08203125 C-177.52884176 100.96498843 -174.78668994 101.23824123 -171.08984375 103.328125 C-171.05246094 102.19375 -171.01507813 101.059375 -170.9765625 99.890625 C-170.52518493 88.7385075 -168.93975451 81.01073591 -163.08984375 71.328125 C-162.42984375 71.328125 -161.76984375 71.328125 -161.08984375 71.328125 C-160.81140625 70.461875 -160.81140625 70.461875 -160.52734375 69.578125 C-158.44239057 66.31472002 -155.58803857 64.76683978 -152.08984375 63.328125 C-148.90234375 62.765625 -148.90234375 62.765625 -146.08984375 63.328125 C-143.16672784 65.61921585 -142.23485114 67.46051779 -141.625 71.109375 C-141.36704123 73.85151209 -141.18624292 76.57592878 -141.08984375 79.328125 C-140.04183594 78.461875 -140.04183594 78.461875 -138.97265625 77.578125 C-138.06257813 76.835625 -137.1525 76.093125 -136.21484375 75.328125 C-135.30992187 74.585625 -134.405 73.843125 -133.47265625 73.078125 C-131.08984375 71.328125 -131.08984375 71.328125 -129.08984375 71.328125 C-129.08984375 70.668125 -129.08984375 70.008125 -129.08984375 69.328125 C-127.17578125 67.953125 -127.17578125 67.953125 -124.46484375 66.328125 C-119.17160252 63.06601122 -114.13209048 59.56125668 -109.12646484 55.88085938 C-106.31051741 53.8314071 -103.5082577 51.96180848 -100.453125 50.28515625 C-88.70392379 43.44851304 -81.65631688 30.78383015 -77.08984375 18.328125 C-76.57611688 15.65065021 -76.3371051 13.04799988 -76.08984375 10.328125 C-73.52827887 7.76656012 -71.77434303 8.04474471 -68.27612305 7.99853516 C-67.51340088 8.0041748 -66.75067871 8.00981445 -65.96484375 8.015625 C-65.18729736 8.02126465 -64.40975098 8.0269043 -63.60864258 8.03271484 C-58.15755476 8.14860999 -53.93084387 8.72886545 -49.08984375 11.328125 C-47.64158203 12.01841797 -47.64158203 12.01841797 -46.1640625 12.72265625 C-35.60869706 17.81346132 -35.60869706 17.81346132 -31.08984375 21.328125 C-31.08984375 21.988125 -31.08984375 22.648125 -31.08984375 23.328125 C-30.42984375 23.328125 -29.76984375 23.328125 -29.08984375 23.328125 C-29.08984375 23.988125 -29.08984375 24.648125 -29.08984375 25.328125 C-28.42984375 25.328125 -27.76984375 25.328125 -27.08984375 25.328125 C-25.36328125 27.296875 -25.36328125 27.296875 -23.46484375 29.828125 C-22.83320313 30.6634375 -22.2015625 31.49875 -21.55078125 32.359375 C-20.82761719 33.33390625 -20.82761719 33.33390625 -20.08984375 34.328125 C-17.82327531 31.42194958 -16.3455128 28.80536236 -15.08984375 25.328125 C-14.42984375 25.328125 -13.76984375 25.328125 -13.08984375 25.328125 C-13.08984375 23.018125 -13.08984375 20.708125 -13.08984375 18.328125 C-12.42984375 18.328125 -11.76984375 18.328125 -11.08984375 18.328125 C-11.12464844 17.36390625 -11.15945312 16.3996875 -11.1953125 15.40625 C-11.22238281 14.14296875 -11.24945313 12.8796875 -11.27734375 11.578125 C-11.31214844 10.32515625 -11.34695312 9.0721875 -11.3828125 7.78125 C-10.71742003 -0.06150926 -6.9098687 -0.25490952 0 0 Z M23.91015625 104.328125 C23.91015625 109.938125 23.91015625 115.548125 23.91015625 121.328125 C23.25015625 121.328125 22.59015625 121.328125 21.91015625 121.328125 C21.91015625 121.988125 21.91015625 122.648125 21.91015625 123.328125 C8.03369675 127.9536115 -6.61354388 121.39822232 -19.15234375 115.828125 C-20.49728356 115.23412073 -21.8423348 114.64036868 -23.1875 114.046875 C-23.83219238 113.76199219 -24.47688477 113.47710937 -25.14111328 113.18359375 C-28.11534823 111.87794112 -31.10208289 110.60248854 -34.08984375 109.328125 C-34.0741333 109.88798096 -34.05842285 110.44783691 -34.04223633 111.0246582 C-33.97984527 113.5632109 -33.94084157 116.10160229 -33.90234375 118.640625 C-33.87720703 119.52169922 -33.85207031 120.40277344 -33.82617188 121.31054688 C-33.81650391 122.15810547 -33.80683594 123.00566406 -33.796875 123.87890625 C-33.78116455 124.65919189 -33.7654541 125.43947754 -33.74926758 126.2434082 C-34.1799692 128.87979612 -34.98980805 129.72405584 -37.08984375 131.328125 C-50.5997918 134.61998558 -65.25740907 132.01955273 -78.08984375 127.328125 C-79.77579063 126.76098691 -81.46327182 126.19838707 -83.15234375 125.640625 C-84.46493418 125.20339639 -85.77744988 124.76594327 -87.08984375 124.328125 C-87.13882813 125.51148438 -87.1878125 126.69484375 -87.23828125 127.9140625 C-87.94169282 143.27215261 -87.94169282 143.27215261 -89.6875 150.3828125 C-90.2248708 152.64989347 -90.2248708 152.64989347 -90.08984375 156.328125 C-90.74984375 156.328125 -91.40984375 156.328125 -92.08984375 156.328125 C-92.54359375 157.111875 -92.99734375 157.895625 -93.46484375 158.703125 C-95.24808791 161.58375017 -95.98658161 162.18625566 -99.08984375 163.328125 C-101.59765625 163.33984375 -101.59765625 163.33984375 -104.21484375 163.015625 C-105.08367187 162.91636719 -105.9525 162.81710938 -106.84765625 162.71484375 C-109.08984375 162.328125 -109.08984375 162.328125 -111.08984375 161.328125 C-111.01765625 161.88757813 -110.94546875 162.44703125 -110.87109375 163.0234375 C-109.07630415 178.52842541 -108.82147782 195.45122113 -116.27734375 209.578125 C-117.37058462 211.61122787 -117.37058462 211.61122787 -117.08984375 215.328125 C-117.74984375 215.328125 -118.40984375 215.328125 -119.08984375 215.328125 C-119.64792464 216.75933244 -120.18580837 218.19842855 -120.71484375 219.640625 C-121.01648438 220.44113281 -121.318125 221.24164063 -121.62890625 222.06640625 C-121.78101563 222.81277344 -121.933125 223.55914062 -122.08984375 224.328125 C-121.42984375 225.318125 -120.76984375 226.308125 -120.08984375 227.328125 C-119.07664062 226.91240234 -119.07664062 226.91240234 -118.04296875 226.48828125 C-116.70492187 225.94494141 -116.70492187 225.94494141 -115.33984375 225.390625 C-114.01726562 224.85115234 -114.01726562 224.85115234 -112.66796875 224.30078125 C-110.47798271 223.47455924 -108.37086104 222.83442557 -106.08984375 222.328125 C-106.08984375 221.668125 -106.08984375 221.008125 -106.08984375 220.328125 C-105.25066406 220.21210938 -104.41148437 220.09609375 -103.546875 219.9765625 C-99.80340709 219.2743979 -96.37963601 218.18755537 -92.77734375 216.953125 C-92.12306396 216.73052002 -91.46878418 216.50791504 -90.79467773 216.27856445 C-88.89210865 215.63122607 -86.99094536 214.97976046 -85.08984375 214.328125 C-83.27805831 213.72181885 -81.4657054 213.11720053 -79.65234375 212.515625 C-78.47671875 212.12375 -77.30109375 211.731875 -76.08984375 211.328125 C-75.75164209 209.7458244 -75.41948436 208.16223125 -75.08984375 206.578125 C-74.81140625 205.25554687 -74.81140625 205.25554687 -74.52734375 203.90625 C-73.978307 201.10668535 -73.978307 201.10668535 -74.08984375 197.328125 C-73.42984375 197.328125 -72.76984375 197.328125 -72.08984375 197.328125 C-71.73921875 196.19375 -71.38859375 195.059375 -71.02734375 193.890625 C-66.5048103 182.07368277 -56.2907524 174.48890402 -45.08984375 169.328125 C-40.57927607 167.55050181 -36.5485704 166.97221906 -31.71484375 166.703125 C-30.40644531 166.62964844 -29.09804687 166.55617187 -27.75 166.48046875 C-23.85219006 166.31823333 -19.9894799 166.24854059 -16.08984375 166.328125 C-16.08984375 166.988125 -16.08984375 167.648125 -16.08984375 168.328125 C-14.41921875 168.6375 -14.41921875 168.6375 -12.71484375 168.953125 C-0.86947053 171.96147375 9.38867738 181.02700088 15.7578125 191.20703125 C17.18164153 193.82784198 18.1697561 196.44056443 18.91015625 199.328125 C19.61140625 199.1115625 20.31265625 198.895 21.03515625 198.671875 C21.98390625 198.3934375 22.93265625 198.115 23.91015625 197.828125 C24.83828125 197.5496875 25.76640625 197.27125 26.72265625 196.984375 C30.56790875 196.19270537 33.98931828 196.22672402 37.91015625 196.328125 C38.06871094 195.2659375 38.22726562 194.20375 38.390625 193.109375 C39.68547716 185.07046157 40.97187128 179.00148306 45.91015625 172.328125 C45.91015625 171.668125 45.91015625 171.008125 45.91015625 170.328125 C46.57015625 170.328125 47.23015625 170.328125 47.91015625 170.328125 C47.91015625 169.668125 47.91015625 169.008125 47.91015625 168.328125 C48.57015625 168.328125 49.23015625 168.328125 49.91015625 168.328125 C50.61140625 167.585625 51.31265625 166.843125 52.03515625 166.078125 C61.07320584 157.43303409 73.01296094 157.02687836 84.91015625 156.328125 C83.66995029 150.79489843 82.18491914 147.92931501 77.34765625 144.828125 C72.11620226 142.27176698 67.38645184 141.76403681 61.66015625 141.703125 C60.90404053 141.69216797 60.1479248 141.68121094 59.36889648 141.66992188 C53.78812518 141.8120291 50.61274968 143.38464986 45.91015625 146.328125 C42.53515625 146.640625 42.53515625 146.640625 39.91015625 146.328125 C38.91015625 145.328125 38.91015625 145.328125 38.85546875 143.4375 C39.16249794 139.40607323 39.5170498 136.8987634 41.84765625 133.515625 C49.97077457 127.71339763 58.08529141 126.63611449 67.91015625 126.328125 C65.33230779 123.68060496 62.99367527 121.38380435 59.91015625 119.328125 C58.92015625 119.328125 57.93015625 119.328125 56.91015625 119.328125 C56.91015625 118.668125 56.91015625 118.008125 56.91015625 117.328125 C55.54697266 116.80025391 55.54697266 116.80025391 54.15625 116.26171875 C46.54505254 113.28138137 39.08643175 110.11950243 31.74780273 106.51342773 C28.92315154 105.14904611 27.09357812 104.328125 23.91015625 104.328125 Z M67.91015625 126.328125 C68.24015625 126.988125 68.57015625 127.648125 68.91015625 128.328125 C69.57015625 127.998125 70.23015625 127.668125 70.91015625 127.328125 C69.92015625 126.998125 68.93015625 126.668125 67.91015625 126.328125 Z M72.49609375 168.2578125 C66.1152182 168.49414122 60.76110554 172.52560669 55.91015625 176.328125 C53.36217459 179.22966051 53.36217459 179.22966051 51.91015625 182.328125 C51.35328125 183.194375 50.79640625 184.060625 50.22265625 184.953125 C46.47517406 194.58950778 46.46063512 208.90896191 50.125 218.51171875 C52.15134729 221.70864741 54.12080842 223.36621178 57.22265625 225.515625 C58.14691406 226.16917969 59.07117188 226.82273437 60.0234375 227.49609375 C62.90639542 229.39501341 62.90639542 229.39501341 66.12890625 230.93359375 C70.13422613 232.94187914 72.22089238 235.30931661 73.6796875 239.58203125 C74.15295725 241.15875347 74.59644506 242.74484763 75.00390625 244.33984375 C75.76209513 246.46965776 75.76209513 246.46965776 77.79296875 247.5703125 C85.16505448 250.20902953 91.80739253 247.27439035 98.8359375 244.8125 C101.93727864 243.31502905 103.18170945 242.24838891 104.91015625 239.328125 C103.59015625 239.328125 102.27015625 239.328125 100.91015625 239.328125 C98.86855616 232.37817804 98.35342695 225.60198266 97.91015625 218.390625 C97.44517509 210.85190266 96.85826479 203.63975319 94.91015625 196.328125 C94.58015625 195.06226563 94.25015625 193.79640625 93.91015625 192.4921875 C93.41515625 190.74035156 93.41515625 190.74035156 92.91015625 188.953125 C92.41515625 187.17808594 92.41515625 187.17808594 91.91015625 185.3671875 C91.01811041 182.20097917 91.01811041 182.20097917 88.91015625 179.328125 C88.52515734 177.67262969 88.1822249 176.0058817 87.91015625 174.328125 C91.74859976 175.43700868 94.33707418 176.24042652 96.91015625 179.328125 C98.51953291 182.55279515 99.69231486 185.93871101 100.91015625 189.328125 C101.17957031 190.04613281 101.44898438 190.76414063 101.7265625 191.50390625 C106.54612976 205.71027466 107.35104235 221.44412735 107.91015625 236.328125 C111.2665939 233.33667311 112.92128271 230.60968525 114.59765625 226.453125 C115.01402344 225.44507813 115.43039062 224.43703125 115.859375 223.3984375 C119.52266787 212.69454087 119.40466765 199.74636481 114.91015625 189.328125 C113.68355158 186.89250139 112.36723569 184.63935446 110.91015625 182.328125 C110.25015625 182.328125 109.59015625 182.328125 108.91015625 182.328125 C108.68328125 181.750625 108.45640625 181.173125 108.22265625 180.578125 C104.65421423 174.46079583 97.42582165 171.38448748 90.91015625 169.328125 C84.79428059 168.27700696 78.67538671 168.43779191 72.49609375 168.2578125 Z M-58.08984375 192.328125 C-63.59696888 200.42111045 -65.26885905 206.99663359 -65.27734375 216.703125 C-65.28958984 217.43273437 -65.30183594 218.16234375 -65.31445312 218.9140625 C-65.33345163 226.00683749 -63.47383276 231.85172736 -60.46484375 238.265625 C-60.01882812 239.22339844 -59.5728125 240.18117188 -59.11328125 241.16796875 C-58.77554688 241.88082031 -58.4378125 242.59367187 -58.08984375 243.328125 C-57.42984375 243.328125 -56.76984375 243.328125 -56.08984375 243.328125 C-55.92484375 244.00875 -55.75984375 244.689375 -55.58984375 245.390625 C-53.32957384 249.8169869 -50.03582547 252.38706223 -46.08984375 255.328125 C-45.40277344 255.84246094 -44.71570313 256.35679687 -44.0078125 256.88671875 C-35.80055665 261.96055643 -26.36812111 260.75679284 -17.08984375 260.328125 C-17.08984375 259.668125 -17.08984375 259.008125 -17.08984375 258.328125 C-16.07921875 258.245625 -15.06859375 258.163125 -14.02734375 258.078125 C-6.39300909 256.94142326 -0.87717208 252.0926832 3.91015625 246.328125 C11.77990255 235.26355051 13.4685459 224.46983265 11.41015625 211.07421875 C8.64887413 198.78965115 2.75348243 190.83253954 -6.96484375 183.015625 C-24.9154617 173.32229131 -44.79579839 177.19531661 -58.08984375 192.328125 Z M22.91015625 211.328125 C22.94496094 212.18792969 22.97976563 213.04773438 23.015625 213.93359375 C23.21325529 222.5634497 22.12859746 230.01708672 19.91015625 238.328125 C19.50483255 240.09681022 19.10777204 241.86742999 18.72265625 243.640625 C18.45453125 244.8575 18.18640625 246.074375 17.91015625 247.328125 C17.25015625 247.328125 16.59015625 247.328125 15.91015625 247.328125 C14.4961506 249.21695417 14.4961506 249.21695417 13.09765625 251.578125 C10.74127439 255.26612315 8.46011969 257.71785776 4.91015625 260.328125 C4.91015625 260.988125 4.91015625 261.648125 4.91015625 262.328125 C4.25015625 262.328125 3.59015625 262.328125 2.91015625 262.328125 C2.91015625 262.988125 2.91015625 263.648125 2.91015625 264.328125 C1.85828125 264.616875 0.80640625 264.905625 -0.27734375 265.203125 C-3.31803086 266.10037693 -6.17696719 267.09235919 -9.08984375 268.328125 C-9.08984375 268.988125 -9.08984375 269.648125 -9.08984375 270.328125 C-23.78905412 272.22479731 -36.81688381 272.50252897 -50.0234375 265.3515625 C-52.00422173 264.18018419 -52.00422173 264.18018419 -54.08984375 264.328125 C-54.08984375 263.668125 -54.08984375 263.008125 -54.08984375 262.328125 C-55.64672318 260.83212145 -55.64672318 260.83212145 -57.65234375 259.265625 C-68.33812775 250.07131969 -73.14870152 238.9643299 -76.08984375 225.328125 C-80.70984375 226.318125 -85.32984375 227.308125 -90.08984375 228.328125 C-90.08984375 228.988125 -90.08984375 229.648125 -90.08984375 230.328125 C-90.66992188 230.44929688 -91.25 230.57046875 -91.84765625 230.6953125 C-96.37012817 231.66547974 -100.72735341 232.76210283 -105.08984375 234.328125 C-105.08984375 234.988125 -105.08984375 235.648125 -105.08984375 236.328125 C-108.05984375 236.988125 -111.02984375 237.648125 -114.08984375 238.328125 C-114.07937012 239.12508789 -114.06889648 239.92205078 -114.05810547 240.74316406 C-114.01652603 244.35478562 -113.99051114 247.96635679 -113.96484375 251.578125 C-113.94808594 252.83238281 -113.93132812 254.08664062 -113.9140625 255.37890625 C-113.90761719 256.58417969 -113.90117187 257.78945313 -113.89453125 259.03125 C-113.88405762 260.14145508 -113.87358398 261.25166016 -113.86279297 262.39550781 C-114.08516041 265.26763442 -114.597028 266.90036235 -116.08984375 269.328125 C-119.43237099 269.40240338 -121.89343515 269.39359453 -125.08984375 268.328125 C-126.27734375 266.265625 -126.27734375 266.265625 -127.08984375 264.328125 C-127.74984375 264.328125 -128.40984375 264.328125 -129.08984375 264.328125 C-129.33734375 263.709375 -129.58484375 263.090625 -129.83984375 262.453125 C-131.31755137 259.94102204 -132.52939552 259.56705156 -135.08984375 258.328125 C-135.41984375 257.338125 -135.74984375 256.348125 -136.08984375 255.328125 C-144.12792927 248.43386061 -151.8020481 244.69496603 -162.41796875 245.046875 C-169.52884467 245.79538825 -175.52917881 248.74905916 -180.08984375 254.328125 C-185.30288598 262.85855774 -186.26777429 271.50483269 -185.08984375 281.328125 C-184.13834405 284.90711625 -182.7887822 288.0462166 -181.08984375 291.328125 C-180.74308594 292.05773437 -180.39632812 292.78734375 -180.0390625 293.5390625 C-178.25764173 297.2394655 -176.41831645 300.94125562 -174.08984375 304.328125 C-173.42984375 304.328125 -172.76984375 304.328125 -172.08984375 304.328125 C-171.86296875 304.885 -171.63609375 305.441875 -171.40234375 306.015625 C-169.71434339 308.98972088 -167.62307858 311.04821365 -165.08984375 313.328125 C-164.42984375 313.328125 -163.76984375 313.328125 -163.08984375 313.328125 C-163.08984375 313.988125 -163.08984375 314.648125 -163.08984375 315.328125 C-162.42984375 315.328125 -161.76984375 315.328125 -161.08984375 315.328125 C-161.08984375 315.988125 -161.08984375 316.648125 -161.08984375 317.328125 C-148.77127654 323.70651356 -139.60890476 326.9160687 -125.94140625 323.03125 C-122.18499804 322.10501236 -118.93634311 322.10621158 -115.08984375 322.328125 C-114.84492188 323.32199219 -114.6 324.31585938 -114.34765625 325.33984375 C-113.12046568 329.61566797 -111.16975349 333.29497148 -108.96484375 337.140625 C-108.37304321 338.18186523 -108.37304321 338.18186523 -107.76928711 339.24414062 C-104.43284816 344.98545439 -100.81245705 350.61683691 -96.08984375 355.328125 C-95.42984375 355.328125 -94.76984375 355.328125 -94.08984375 355.328125 C-94.08984375 355.988125 -94.08984375 356.648125 -94.08984375 357.328125 C-93.42984375 357.328125 -92.76984375 357.328125 -92.08984375 357.328125 C-92.08984375 357.988125 -92.08984375 358.648125 -92.08984375 359.328125 C-91.42984375 359.328125 -90.76984375 359.328125 -90.08984375 359.328125 C-90.08984375 359.988125 -90.08984375 360.648125 -90.08984375 361.328125 C-88.59412804 362.77422405 -88.59412804 362.77422405 -86.6171875 364.2265625 C-85.88177734 364.78859375 -85.14636719 365.350625 -84.38867188 365.9296875 C-83.60943359 366.51492188 -82.83019531 367.10015625 -82.02734375 367.703125 C-81.27517578 368.280625 -80.52300781 368.858125 -79.74804688 369.453125 C-72.56363585 375.49062223 -72.56363585 375.49062223 -64.08984375 378.328125 C-64.08984375 378.988125 -64.08984375 379.648125 -64.08984375 380.328125 C-62.65555374 381.00166999 -61.21727318 381.66672201 -59.77734375 382.328125 C-58.57658203 382.885 -58.57658203 382.885 -57.3515625 383.453125 C-55.02770416 384.50853167 -55.02770416 384.50853167 -52.08984375 384.328125 C-52.08984375 384.988125 -52.08984375 385.648125 -52.08984375 386.328125 C-50.37087891 386.92560547 -50.37087891 386.92560547 -48.6171875 387.53515625 C-47.08719477 388.07018438 -45.55724937 388.60534785 -44.02734375 389.140625 C-43.27517578 389.40166016 -42.52300781 389.66269531 -41.74804688 389.93164062 C-38.24481152 391.16004783 -34.79438888 392.42372583 -31.3984375 393.92578125 C-28.34539676 395.21980914 -25.42446427 396.14405168 -22.21484375 396.953125 C-17.19203353 398.22593522 -17.19203353 398.22593522 -16.08984375 399.328125 C-14.19216604 399.5532732 -12.29370356 399.77553974 -10.390625 399.94921875 C-7.49929623 400.42537985 -4.86757259 401.39988018 -2.08984375 402.328125 C19.3288757 407.16076087 41.65528055 406.04840715 60.91015625 395.328125 C60.91015625 394.668125 60.91015625 394.008125 60.91015625 393.328125 C62.23015625 392.998125 63.55015625 392.668125 64.91015625 392.328125 C64.91015625 391.668125 64.91015625 391.008125 64.91015625 390.328125 C65.44640625 390.121875 65.98265625 389.915625 66.53515625 389.703125 C69.82993634 387.79562074 72.50379253 385.27993116 74.91015625 382.328125 C74.91015625 381.668125 74.91015625 381.008125 74.91015625 380.328125 C75.57015625 380.328125 76.23015625 380.328125 76.91015625 380.328125 C78.23150596 378.10380282 79.54226831 375.87428881 80.84765625 373.640625 C81.22083984 373.01478516 81.59402344 372.38894531 81.97851562 371.74414062 C83.98956836 368.28368051 85.4229129 365.37301824 85.91015625 361.328125 C86.57015625 361.328125 87.23015625 361.328125 87.91015625 361.328125 C88.0803125 360.79445313 88.25046875 360.26078125 88.42578125 359.7109375 C89.7475564 355.64718198 91.16084764 351.69262211 92.84765625 347.765625 C95.41621281 341.46187742 96.88953464 334.88126105 98.44873047 328.27490234 C99.12232241 325.43298587 99.82763644 322.59925962 100.53515625 319.765625 C100.77363281 318.80269531 101.01210938 317.83976562 101.2578125 316.84765625 C101.77071746 314.86667601 102.35818049 312.90498917 102.97265625 310.953125 C107.54631652 293.2683053 108.11010332 272.90889844 102.91015625 255.328125 C102.14703125 255.6684375 101.38390625 256.00875 100.59765625 256.359375 C96.42938212 257.45443007 93.12408788 257.2583654 88.86254883 256.99536133 C80.01142243 256.14843969 80.01142243 256.14843969 72.2421875 259.44140625 C70.77993947 262.03886997 69.85505178 264.51118292 68.91015625 267.328125 C65.96281974 270.9006541 62.37779178 272.42210101 57.91015625 273.328125 C43.96521878 274.34647918 43.96521878 274.34647918 37.91015625 272.328125 C37.86773902 269.99517725 37.86922688 267.66109933 37.91015625 265.328125 C39.99157179 263.24670946 44.09622578 263.59723739 46.97265625 263.265625 C47.73126953 263.17474609 48.48988281 263.08386719 49.27148438 262.99023438 C51.15058635 262.7656876 53.0303172 262.54641522 54.91015625 262.328125 C54.91015625 261.668125 54.91015625 261.008125 54.91015625 260.328125 C55.65265625 260.26625 56.39515625 260.204375 57.16015625 260.140625 C60.87770153 259.04225935 61.90881791 257.61603799 63.91015625 254.328125 C64.80985609 250.38328725 65.29786698 247.18287703 63.91015625 243.328125 C63.25015625 243.328125 62.59015625 243.328125 61.91015625 243.328125 C61.58015625 242.338125 61.25015625 241.348125 60.91015625 240.328125 C59.02130443 239.04469428 59.02130443 239.04469428 56.72265625 237.953125 C53.6857751 236.36214745 51.05554676 234.77245755 48.47265625 232.515625 C46.21816941 230.11170421 46.21816941 230.11170421 43.91015625 230.328125 C43.60078125 229.52375 43.29140625 228.719375 42.97265625 227.890625 C42.1468028 225.43732095 42.1468028 225.43732095 40.91015625 224.328125 C40.25455506 221.15501522 39.66350466 217.97815803 39.10351562 214.78710938 C38.39184927 210.631398 38.39184927 210.631398 35.91015625 207.328125 C30.37509102 206.55579032 27.42486425 208.43871188 22.91015625 211.328125 Z " fill="#090909" transform="translate(262.08984375,33.671875)"/>
<path d="M0 0 C1.44574991 0.00052126 2.89150053 -0.00000665 4.33724976 -0.00151062 C7.3372484 -0.00142193 10.33697254 0.008794 13.33691406 0.02709961 C17.1398745 0.04982423 20.94243739 0.05031189 24.74544716 0.04358196 C27.72099202 0.04020662 30.6964498 0.04693764 33.671978 0.0567112 C35.07269203 0.06049927 36.47341584 0.06173874 37.87413406 0.06012535 C51.63704031 0.05747198 64.61718064 1.96734148 77.9609375 5.23828125 C78.99798828 5.48191406 80.03503906 5.72554688 81.10351562 5.9765625 C88.02711776 7.65001925 94.63056513 9.80136581 101.2734375 12.36328125 C102.42714844 12.79511719 103.58085937 13.22695312 104.76953125 13.671875 C107.9425714 14.88968191 111.10948089 16.12206602 114.2734375 17.36328125 C115.74103516 17.93175781 115.74103516 17.93175781 117.23828125 18.51171875 C128.07383216 22.84593911 138.17325239 28.55664474 148.2734375 34.36328125 C148.2734375 35.02328125 148.2734375 35.68328125 148.2734375 36.36328125 C149.12550781 36.58886719 149.97757812 36.81445312 150.85546875 37.046875 C154.87858008 38.59634759 157.65632182 40.71852368 160.9609375 43.42578125 C165.25691165 46.99257315 165.25691165 46.99257315 170.2734375 49.36328125 C171.29363323 50.34266915 172.29493555 51.34223574 173.2734375 52.36328125 C173.9334375 52.69328125 174.5934375 53.02328125 175.2734375 53.36328125 C175.2734375 54.02328125 175.2734375 54.68328125 175.2734375 55.36328125 C175.9334375 55.36328125 176.5934375 55.36328125 177.2734375 55.36328125 C177.2734375 56.02328125 177.2734375 56.68328125 177.2734375 57.36328125 C177.98749756 57.58910889 178.70155762 57.81493652 179.43725586 58.04760742 C182.90943396 59.65831309 184.96084435 61.69497992 187.65234375 64.4140625 C188.14629135 64.90988327 188.64023895 65.40570404 189.14915466 65.91654968 C190.18882713 66.96292037 191.22490774 68.01287084 192.25756836 69.06616211 C193.82745554 70.66713136 195.40768963 72.25725428 196.99023438 73.84570312 C209.2734375 86.24015769 209.2734375 86.24015769 209.2734375 89.36328125 C209.9334375 89.36328125 210.5934375 89.36328125 211.2734375 89.36328125 C212.63706958 91.34274717 213.96762394 93.34520575 215.2734375 95.36328125 C216.26979877 96.36690679 217.26991302 97.36681819 218.2734375 98.36328125 C219.13026062 99.49010115 219.95886796 100.63879747 220.76171875 101.8046875 C221.44645264 102.79710449 221.44645264 102.79710449 222.14501953 103.80957031 C222.62052246 104.50791992 223.09602539 105.20626953 223.5859375 105.92578125 C224.07433105 106.64088867 224.56272461 107.35599609 225.06591797 108.09277344 C235.18800213 123.00846674 235.18800213 123.00846674 236.2734375 128.36328125 C236.9334375 128.36328125 237.5934375 128.36328125 238.2734375 128.36328125 C249.11730531 150.76410568 258.48343675 172.84306706 263.2734375 197.36328125 C263.51816803 198.56062897 263.76289856 199.75797668 264.01504517 200.99160767 C266.00236264 211.09648915 266.69454676 220.73980183 266.6015625 231.01953125 C266.59849054 232.5430889 266.59662538 234.0666494 266.59588623 235.59020996 C266.59133958 238.7464514 266.57712847 241.90242961 266.5546875 245.05859375 C266.52621394 249.08053515 266.51544925 253.10227302 266.5110054 257.12430573 C266.5058309 261.00607301 266.49133773 264.88779085 266.4765625 268.76953125 C266.47468178 269.49489578 266.47280106 270.22026031 266.47086334 270.96760559 C266.43894441 280.4795817 266.30312117 289.75974489 264.0234375 299.05078125 C263.76046875 300.14132812 263.4975 301.231875 263.2265625 302.35546875 C263.07767578 302.97260742 262.92878906 303.58974609 262.77539062 304.22558594 C262.18304766 306.7482294 261.62579468 309.27758013 261.0703125 311.80859375 C260.85665039 312.77450439 260.64298828 313.74041504 260.42285156 314.7355957 C259.9988773 316.65511527 259.5787783 318.57549606 259.16308594 320.49682617 C257.76856339 326.75371084 256.16698188 332.78658631 253.1484375 338.48828125 C251.95636188 341.04272901 251.65221213 343.58560059 251.2734375 346.36328125 C250.6134375 346.36328125 249.9534375 346.36328125 249.2734375 346.36328125 C249.2115625 347.12640625 249.1496875 347.88953125 249.0859375 348.67578125 C247.9251071 353.94416538 245.57996516 358.50743354 243.2734375 363.36328125 C242.33228785 365.42411842 241.39462797 367.48655389 240.4609375 369.55078125 C239.73177083 371.15494792 239.00260417 372.75911458 238.2734375 374.36328125 C237.6134375 374.36328125 236.9534375 374.36328125 236.2734375 374.36328125 C235.93119141 375.5853125 235.93119141 375.5853125 235.58203125 376.83203125 C233.96727292 381.18946866 231.77071862 384.9192058 229.3359375 388.86328125 C228.85157227 389.65138184 228.36720703 390.43948242 227.86816406 391.25146484 C221.65121199 401.18293541 214.3924972 410.24182799 206.515625 418.91015625 C205.17376817 420.36158214 205.17376817 420.36158214 204.2734375 422.36328125 C203.6134375 422.36328125 202.9534375 422.36328125 202.2734375 422.36328125 C202.01369141 422.94754883 201.75394531 423.53181641 201.48632812 424.13378906 C200.1887815 426.51889289 198.78002628 428.11518762 196.8671875 430.03515625 C196.20589844 430.69902344 195.54460937 431.36289062 194.86328125 432.046875 C194.17363281 432.72878906 193.48398437 433.41070312 192.7734375 434.11328125 C191.73896484 435.15935547 191.73896484 435.15935547 190.68359375 436.2265625 C190.02230469 436.88527344 189.36101562 437.54398437 188.6796875 438.22265625 C188.07447266 438.82561523 187.46925781 439.42857422 186.84570312 440.04980469 C185.2734375 441.36328125 185.2734375 441.36328125 183.2734375 441.36328125 C183.2734375 442.02328125 183.2734375 442.68328125 183.2734375 443.36328125 C182.6134375 443.36328125 181.9534375 443.36328125 181.2734375 443.36328125 C181.2734375 444.02328125 181.2734375 444.68328125 181.2734375 445.36328125 C179.14303137 447.19447303 177.00601245 448.91473665 174.7734375 450.61328125 C174.1343042 451.10546143 173.4951709 451.5976416 172.83666992 452.10473633 C171.56421532 453.0830638 170.28975264 454.05878566 169.01318359 455.03173828 C167.55434603 456.14828334 166.10942215 457.28297554 164.66796875 458.421875 C163.98089844 458.95941406 163.29382813 459.49695313 162.5859375 460.05078125 C162.00457031 460.50839844 161.42320312 460.96601563 160.82421875 461.4375 C159.2734375 462.36328125 159.2734375 462.36328125 156.2734375 462.36328125 C156.2734375 463.02328125 156.2734375 463.68328125 156.2734375 464.36328125 C153.2734375 466.36328125 153.2734375 466.36328125 150.2734375 466.36328125 C150.2734375 467.02328125 150.2734375 467.68328125 150.2734375 468.36328125 C148.86015621 469.18165567 147.44265404 469.99274344 146.0234375 470.80078125 C145.23453125 471.25324219 144.445625 471.70570313 143.6328125 472.171875 C141.48510282 473.25639727 139.62138689 473.89476841 137.2734375 474.36328125 C137.2734375 475.02328125 137.2734375 475.68328125 137.2734375 476.36328125 C129.41643809 480.45080568 121.60192106 484.1723542 113.28125 487.25 C110.62603582 488.23277408 108.01372428 489.28005191 105.3984375 490.36328125 C103.69300468 491.03733327 101.98443038 491.70347021 100.2734375 492.36328125 C99.27054687 492.75386719 98.26765625 493.14445312 97.234375 493.546875 C85.66878654 497.73711642 73.73568511 499.75089207 61.64916992 501.87011719 C59.27024177 502.25817682 59.27024177 502.25817682 57.2734375 503.36328125 C49.84841948 504.4428932 42.50926156 504.5242836 35.015625 504.53125 C33.12373947 504.5362426 33.12373947 504.5362426 31.19363403 504.54133606 C28.5326991 504.54638127 25.87186643 504.54917995 23.2109375 504.54858398 C20.51327785 504.54850293 17.81578875 504.55541739 15.11816406 504.5690918 C-3.55881609 504.6570184 -20.57066628 503.91792495 -38.7265625 499.36328125 C-40.07660733 499.03686745 -41.42687868 498.71138949 -42.77734375 498.38671875 C-49.87047258 496.66664738 -56.84378906 494.81308197 -63.7265625 492.36328125 C-64.7165625 492.03328125 -65.7065625 491.70328125 -66.7265625 491.36328125 C-66.7265625 490.70328125 -66.7265625 490.04328125 -66.7265625 489.36328125 C-67.45359375 489.40453125 -68.180625 489.44578125 -68.9296875 489.48828125 C-71.99438433 489.35131156 -73.72856125 488.69352389 -76.4765625 487.36328125 C-77.43046875 486.90824219 -78.384375 486.45320313 -79.3671875 485.984375 C-80.47578125 485.44941406 -81.584375 484.91445313 -82.7265625 484.36328125 C-84.09531454 483.72692572 -85.46517136 483.09294281 -86.8359375 482.4609375 C-94.96189584 478.70251106 -102.94311595 474.80135876 -110.7265625 470.36328125 C-110.7265625 469.70328125 -110.7265625 469.04328125 -110.7265625 468.36328125 C-112.11875 467.93015625 -112.11875 467.93015625 -113.5390625 467.48828125 C-116.7265625 466.36328125 -116.7265625 466.36328125 -119.7265625 464.36328125 C-119.7265625 463.70328125 -119.7265625 463.04328125 -119.7265625 462.36328125 C-120.72236328 462.0384375 -120.72236328 462.0384375 -121.73828125 461.70703125 C-125.73032607 459.91191567 -129.03243848 457.46053196 -132.5390625 454.86328125 C-133.23193359 454.36441406 -133.92480469 453.86554688 -134.63867188 453.3515625 C-135.6199707 452.63033203 -135.6199707 452.63033203 -136.62109375 451.89453125 C-137.51598511 451.23807617 -137.51598511 451.23807617 -138.42895508 450.56835938 C-138.85716553 450.17068359 -139.28537598 449.77300781 -139.7265625 449.36328125 C-139.7265625 448.70328125 -139.7265625 448.04328125 -139.7265625 447.36328125 C-140.62375 446.93015625 -140.62375 446.93015625 -141.5390625 446.48828125 C-143.7265625 445.36328125 -143.7265625 445.36328125 -146.7265625 443.36328125 C-146.7265625 442.70328125 -146.7265625 442.04328125 -146.7265625 441.36328125 C-147.31373047 441.10063477 -147.90089844 440.83798828 -148.50585938 440.56738281 C-150.83501332 439.30447744 -152.3852482 437.96296255 -154.2578125 436.09765625 C-154.90363281 435.45441406 -155.54945313 434.81117188 -156.21484375 434.1484375 C-156.87871094 433.47683594 -157.54257813 432.80523437 -158.2265625 432.11328125 C-159.22236328 431.12908203 -159.22236328 431.12908203 -160.23828125 430.125 C-163.93155216 426.41698549 -166.94218068 422.78706546 -169.7265625 418.36328125 C-170.8403125 417.24953125 -170.8403125 417.24953125 -171.9765625 416.11328125 C-172.5540625 415.53578125 -173.1315625 414.95828125 -173.7265625 414.36328125 C-173.7265625 413.70328125 -173.7265625 413.04328125 -173.7265625 412.36328125 C-174.7165625 412.03328125 -175.7065625 411.70328125 -176.7265625 411.36328125 C-178.10180664 409.8671875 -178.10180664 409.8671875 -179.51171875 407.92578125 C-180.03765625 407.20390625 -180.56359375 406.48203125 -181.10546875 405.73828125 C-181.66105469 404.95453125 -182.21664062 404.17078125 -182.7890625 403.36328125 C-183.36398438 402.55890625 -183.93890625 401.75453125 -184.53125 400.92578125 C-204.7265625 372.26724466 -204.7265625 372.26724466 -204.7265625 363.36328125 C-205.3865625 363.36328125 -206.0465625 363.36328125 -206.7265625 363.36328125 C-207.11328125 362.39648438 -207.5 361.4296875 -207.8984375 360.43359375 C-208.14859619 359.80839844 -208.39875488 359.18320312 -208.65649414 358.5390625 C-209.20832367 357.15907797 -209.759583 355.7788653 -210.31030273 354.3984375 C-211.47418675 351.48276669 -212.64133564 348.56961996 -213.83984375 345.66796875 C-214.83753989 343.24557895 -215.78809219 340.80921567 -216.7265625 338.36328125 C-217.31050781 336.89761719 -217.31050781 336.89761719 -217.90625 335.40234375 C-222.26709567 323.56576264 -224.09564297 311.24446245 -226.11987305 298.83081055 C-226.44757631 296.95782488 -226.79243649 295.08590023 -227.23178101 293.23591614 C-228.94687974 285.7824653 -229.01591026 278.53901194 -228.9921875 270.9140625 C-228.99353943 269.52939283 -228.99548432 268.14472362 -228.99798584 266.76005554 C-229.00091724 263.86969445 -228.99670726 260.97945782 -228.98730469 258.08911133 C-228.97596515 254.42957935 -228.98244723 250.77034267 -228.99444962 247.11082172 C-229.00176847 244.25276066 -228.99933415 241.39476649 -228.99419403 238.53670311 C-228.99225495 236.54581379 -228.99821298 234.55492161 -229.00445557 232.56404114 C-228.93645157 219.1028887 -226.93738469 206.42749816 -223.7265625 193.36328125 C-223.39844305 191.92767479 -223.07307138 190.4914384 -222.75 189.0546875 C-222.58032715 188.30815918 -222.4106543 187.56163086 -222.23583984 186.79248047 C-221.90715019 185.34567874 -221.58171472 183.89813206 -221.26025391 182.44970703 C-220.135764 177.57303321 -218.54494391 173.01986769 -216.7265625 168.36328125 C-216.31277344 167.20570313 -215.89898437 166.048125 -215.47265625 164.85546875 C-211.20570507 153.06085147 -206.02203789 141.72734002 -200.7265625 130.36328125 C-200.0665625 130.36328125 -199.4065625 130.36328125 -198.7265625 130.36328125 C-198.50613281 129.55890625 -198.28570312 128.75453125 -198.05859375 127.92578125 C-196.35626059 123.37291369 -193.97227952 119.48088953 -191.4140625 115.36328125 C-190.94033203 114.58210938 -190.46660156 113.8009375 -189.97851562 112.99609375 C-187.81105685 109.4736026 -185.63014886 106.12989885 -182.93359375 102.98828125 C-180.56813913 100.50212796 -180.56813913 100.50212796 -179.7265625 97.36328125 C-178.7471746 96.34308552 -177.74760801 95.3417832 -176.7265625 94.36328125 C-176.3965625 93.70328125 -176.0665625 93.04328125 -175.7265625 92.36328125 C-175.0665625 92.36328125 -174.4065625 92.36328125 -173.7265625 92.36328125 C-173.40365234 91.58017578 -173.40365234 91.58017578 -173.07421875 90.78125 C-171.17933852 87.3814504 -168.7107457 84.60600583 -166.1640625 81.67578125 C-165.63119629 81.05944824 -165.09833008 80.44311523 -164.54931641 79.80810547 C-155.42423995 69.34472088 -155.42423995 69.34472088 -150.7265625 65.36328125 C-150.0665625 65.36328125 -149.4065625 65.36328125 -148.7265625 65.36328125 C-148.7265625 64.70328125 -148.7265625 64.04328125 -148.7265625 63.36328125 C-147.265625 61.85546875 -147.265625 61.85546875 -145.3515625 60.23828125 C-144.72507812 59.69945312 -144.09859375 59.160625 -143.453125 58.60546875 C-141.7265625 57.36328125 -141.7265625 57.36328125 -139.7265625 57.36328125 C-139.7265625 56.70328125 -139.7265625 56.04328125 -139.7265625 55.36328125 C-138.21704102 54.03808594 -138.21704102 54.03808594 -136.10546875 52.53515625 C-135.33396484 51.98214844 -134.56246094 51.42914063 -133.76757812 50.859375 C-132.94966797 50.28316406 -132.13175781 49.70695312 -131.2890625 49.11328125 C-130.50595703 48.55253906 -129.72285156 47.99179687 -128.91601562 47.4140625 C-124.89239136 44.54619533 -120.83594885 41.72547217 -116.75390625 38.94140625 C-116.0280835 38.44543945 -115.30226074 37.94947266 -114.55444336 37.43847656 C-112.7265625 36.36328125 -112.7265625 36.36328125 -110.7265625 36.36328125 C-110.7265625 35.70328125 -110.7265625 35.04328125 -110.7265625 34.36328125 C-106.76850429 32.24981088 -102.80316185 30.15088267 -98.83081055 28.06445312 C-97.48372671 27.35442735 -96.13862041 26.64063529 -94.7956543 25.92285156 C-87.59598275 22.07802882 -80.90762636 18.566643 -72.7265625 17.36328125 C-72.7265625 16.70328125 -72.7265625 16.04328125 -72.7265625 15.36328125 C-71.13328125 14.87408203 -71.13328125 14.87408203 -69.5078125 14.375 C-68.08069048 13.93371885 -66.65360933 13.49230549 -65.2265625 13.05078125 C-64.53046875 12.83744141 -63.834375 12.62410156 -63.1171875 12.40429688 C-59.59578996 11.31201153 -56.13225592 10.1562477 -52.6953125 8.8203125 C-48.76844415 7.32365156 -44.82096518 6.29061237 -40.7265625 5.36328125 C-40.08589844 5.21117187 -39.44523438 5.0590625 -38.78515625 4.90234375 C-36.43809393 4.35900105 -34.08368909 3.8614138 -31.7265625 3.36328125 C-30.59288239 3.11669266 -29.45920227 2.87010406 -28.29116821 2.61604309 C-18.78510307 0.67180861 -9.72529503 -0.07118571 0 0 Z M-33.7265625 19.36328125 C-35.08828951 19.68985531 -36.45028181 20.01532464 -37.8125 20.33984375 C-46.91293617 22.48706211 -46.91293617 22.48706211 -55.734375 25.546875 C-57.234512 26.16163703 -58.75406016 26.72934693 -60.28125 27.2734375 C-79.69450924 34.30759247 -100.27023141 43.62107946 -116.06640625 57.15234375 C-118.7265625 59.36328125 -118.7265625 59.36328125 -121.7265625 60.36328125 C-121.7265625 61.02328125 -121.7265625 61.68328125 -121.7265625 62.36328125 C-122.933125 62.76546875 -122.933125 62.76546875 -124.1640625 63.17578125 C-125.4325 63.76359375 -125.4325 63.76359375 -126.7265625 64.36328125 C-127.0565625 65.35328125 -127.3865625 66.34328125 -127.7265625 67.36328125 C-129.03728459 68.07337266 -130.37483774 68.73474137 -131.7265625 69.36328125 C-137.12418641 73.58121829 -141.93917334 78.47906849 -146.7265625 83.36328125 C-147.51804687 84.14832031 -148.30953125 84.93335937 -149.125 85.7421875 C-161.03231954 96.20122739 -161.03231954 96.20122739 -167.7265625 109.36328125 C-168.3865625 109.36328125 -169.0465625 109.36328125 -169.7265625 109.36328125 C-170.29632813 110.37777344 -170.86609375 111.39226562 -171.453125 112.4375 C-173.54716184 116.10160404 -175.79564564 119.64256983 -178.1015625 123.17578125 C-178.89924524 124.41354232 -179.69611828 125.65182557 -180.4921875 126.890625 C-181.78852144 128.9075681 -183.08970917 130.92072836 -184.3984375 132.9296875 C-189.0629725 140.34027939 -192.37977764 148.29798508 -195.7265625 156.36328125 C-196.00564453 157.03149902 -196.28472656 157.6997168 -196.57226562 158.38818359 C-199.36384601 165.10150545 -202.05605417 171.80510812 -203.98828125 178.82421875 C-204.64846892 181.09470546 -205.4010434 183.29952831 -206.1796875 185.53125 C-207.81009065 190.38794032 -208.84397257 195.27196941 -209.7890625 200.30078125 C-210.11328125 201.9765625 -210.4375 203.65234375 -210.76171875 205.328125 C-210.91930664 206.1629541 -211.07689453 206.9977832 -211.23925781 207.85791016 C-211.55852214 209.49933828 -211.89579561 211.13738927 -212.25292969 212.77099609 C-213.71327899 219.52205221 -214.36236923 226.22884215 -214.8515625 233.11328125 C-214.9350293 234.27142334 -215.01849609 235.42956543 -215.10449219 236.62280273 C-215.94977714 248.88547236 -215.77873107 260.73730583 -214.8515625 272.98828125 C-214.77325195 274.02605713 -214.69494141 275.06383301 -214.61425781 276.13305664 C-213.63301601 287.99724755 -211.36964 299.50393262 -208.7890625 311.11328125 C-208.53705078 312.27988281 -208.28503906 313.44648438 -208.02539062 314.6484375 C-206.66467966 320.79425734 -205.08302095 326.52945439 -202.7265625 332.36328125 C-201.99668304 334.5297079 -201.26750229 336.6963701 -200.5390625 338.86328125 C-197.8536505 346.4246226 -194.35572961 353.45180063 -190.65917969 360.5625 C-189.36267479 363.06590841 -188.10638974 365.58877674 -186.8515625 368.11328125 C-186.48289062 368.850625 -186.11421875 369.58796875 -185.734375 370.34765625 C-184.73177083 372.35286458 -183.72916667 374.35807292 -182.7265625 376.36328125 C-182.0665625 376.36328125 -181.4065625 376.36328125 -180.7265625 376.36328125 C-180.5821875 376.98203125 -180.4378125 377.60078125 -180.2890625 378.23828125 C-179.79504025 380.39586447 -179.79504025 380.39586447 -178.7265625 382.36328125 C-178.0665625 382.36328125 -177.4065625 382.36328125 -176.7265625 382.36328125 C-176.6440625 382.87890625 -176.5615625 383.39453125 -176.4765625 383.92578125 C-175.40516025 387.40783857 -173.59132645 390.2352901 -171.7265625 393.36328125 C-171.0665625 393.36328125 -170.4065625 393.36328125 -169.7265625 393.36328125 C-169.4790625 393.89953125 -169.2315625 394.43578125 -168.9765625 394.98828125 C-167.42003713 397.94567945 -165.69220577 400.66052176 -163.7265625 403.36328125 C-163.0665625 403.36328125 -162.4065625 403.36328125 -161.7265625 403.36328125 C-161.4378125 403.96140625 -161.1490625 404.55953125 -160.8515625 405.17578125 C-159.67914224 407.55655917 -159.67914224 407.55655917 -157.7265625 410.36328125 C-157.0665625 410.36328125 -156.4065625 410.36328125 -155.7265625 410.36328125 C-155.324375 411.22953125 -155.324375 411.22953125 -154.9140625 412.11328125 C-153.69727061 414.41878168 -152.42322371 416.38384317 -150.7265625 418.36328125 C-150.0665625 418.36328125 -149.4065625 418.36328125 -148.7265625 418.36328125 C-148.7265625 419.02328125 -148.7265625 419.68328125 -148.7265625 420.36328125 C-148.0665625 420.36328125 -147.4065625 420.36328125 -146.7265625 420.36328125 C-146.51773438 420.90597656 -146.30890625 421.44867188 -146.09375 422.0078125 C-144.20996901 425.25329803 -141.60638041 427.55828899 -138.8515625 430.05078125 C-138.27293457 430.57897461 -137.69430664 431.10716797 -137.09814453 431.65136719 C-131.58024275 436.61792948 -125.75612803 441.0310465 -119.7265625 445.36328125 C-118.28410156 446.430625 -118.28410156 446.430625 -116.8125 447.51953125 C-99.6148662 460.21640689 -80.08417565 470.71214771 -59.7265625 477.36328125 C-58.5921875 477.77578125 -57.4578125 478.18828125 -56.2890625 478.61328125 C-53.53173776 479.55054709 -53.53173776 479.55054709 -49.7265625 479.36328125 C-49.7265625 480.02328125 -49.7265625 480.68328125 -49.7265625 481.36328125 C-47.65625 481.77734375 -45.5859375 482.19140625 -43.515625 482.60546875 C-42.55237808 482.79811813 -42.55237808 482.79811813 -41.56967163 482.99465942 C-40.57032089 483.19452957 -40.57032089 483.19452957 -39.55078125 483.3984375 C-38.15104167 483.67838542 -36.75130208 483.95833333 -35.3515625 484.23828125 C-34.33521729 484.44155029 -34.33521729 484.44155029 -33.29833984 484.64892578 C-31.95186517 484.91822072 -30.6054091 485.1876087 -29.25897217 485.45709229 C-27.9287591 485.72293939 -26.59839542 485.98803402 -25.2678833 486.25238037 C-22.47638452 486.80773922 -19.68795107 487.3715809 -16.90527344 487.96972656 C-5.27330622 490.45078328 6.36727101 490.56358094 18.2109375 490.55078125 C18.98024597 490.55117401 19.74955444 490.55156677 20.54217529 490.55197144 C40.10976646 492.00981848 40.10976646 492.00981848 57.2734375 487.36328125 C58.87427404 487.00733054 60.4863911 486.70186993 62.1015625 486.41796875 C81.16980242 482.92932356 99.06945752 478.0160689 116.43017578 469.28564453 C118.39862215 468.30063919 120.37957656 467.34449944 122.36328125 466.390625 C136.04029319 459.76376798 148.20471983 451.40094382 160.546875 442.58081055 C162.10447163 441.48243182 163.68761357 440.4204972 165.2734375 439.36328125 C165.2734375 438.70328125 165.2734375 438.04328125 165.2734375 437.36328125 C165.8715625 437.07453125 166.4696875 436.78578125 167.0859375 436.48828125 C169.46671542 435.31586099 169.46671542 435.31586099 172.2734375 433.36328125 C172.2734375 432.70328125 172.2734375 432.04328125 172.2734375 431.36328125 C172.85609375 431.10514648 173.43875 430.84701172 174.0390625 430.58105469 C176.45657023 429.26347071 178.07593739 427.81936478 180.0234375 425.87890625 C180.714375 425.19054687 181.4053125 424.5021875 182.1171875 423.79296875 C183.18453125 422.71402344 183.18453125 422.71402344 184.2734375 421.61328125 C184.985 420.90945313 185.6965625 420.205625 186.4296875 419.48046875 C190.24457041 415.6513512 193.4080863 411.9383821 196.2734375 407.36328125 C197.9194026 405.67616702 199.58580899 404.00871905 201.2734375 402.36328125 C204.28891848 399.27175236 204.28891848 399.27175236 205.2734375 395.36328125 C205.9334375 395.36328125 206.5934375 395.36328125 207.2734375 395.36328125 C207.84320313 394.34878906 208.41296875 393.33429688 209 392.2890625 C211.09404125 388.62495075 213.34262505 385.084066 215.6484375 381.55078125 C216.44738885 380.31039421 217.24556443 379.06950714 218.04296875 377.828125 C219.32366196 375.83527815 220.61116474 373.84822705 221.91015625 371.8671875 C226.59103851 364.46754623 229.9420473 356.46507167 233.37890625 348.43603516 C234.11527258 346.72977147 234.87828121 345.03503071 235.6484375 343.34375 C259.59903868 289.53368221 259.65104742 223.25101757 239.8359375 168.26953125 C236.75826416 160.30772412 233.05790389 152.7189175 229.17578125 145.12890625 C226.70526266 140.28417115 224.46614767 135.33904663 222.2734375 130.36328125 C221.6134375 130.36328125 220.9534375 130.36328125 220.2734375 130.36328125 C220.18449219 129.82058594 220.09554688 129.27789062 220.00390625 128.71875 C219.04110053 125.61408771 217.42410746 123.35425747 215.5859375 120.67578125 C212.48050784 116.13192995 209.44938948 111.55668046 206.5 106.91015625 C206.09523438 106.3996875 205.69046875 105.88921875 205.2734375 105.36328125 C204.6134375 105.36328125 203.9534375 105.36328125 203.2734375 105.36328125 C203.05300781 104.83605469 202.83257812 104.30882813 202.60546875 103.765625 C200.7848943 100.48218428 198.40713784 97.75114069 195.9609375 94.92578125 C195.43185791 94.31323486 194.90277832 93.70068848 194.35766602 93.06958008 C183.82008638 81.01535658 172.33718915 70.45641515 159.4296875 60.9609375 C157.74947315 59.71599607 156.08610022 58.44831392 154.4296875 57.171875 C149.35733021 53.28434864 144.38946249 49.62136955 138.71875 46.6640625 C136.85202056 45.67105786 135.01886255 44.61468628 133.203125 43.53125 C124.8188512 38.53697301 116.28536495 34.67737441 107.20019531 31.13232422 C105.30732976 30.37680895 103.44096599 29.57545785 101.57421875 28.7578125 C98.85095948 27.60727575 96.23639165 26.66593495 93.3984375 25.86328125 C90.24209518 24.96452615 87.14268176 23.97317156 84.04296875 22.8984375 C79.3671414 21.3298166 74.66798467 20.26401953 69.8359375 19.30078125 C69.05412109 19.14029297 68.27230469 18.97980469 67.46679688 18.81445312 C65.87656085 18.48908848 64.28548024 18.16782597 62.69360352 17.85058594 C61.06697034 17.52306048 59.44242837 17.18498931 57.82006836 16.83691406 C51.80259448 15.56659132 45.83603934 14.77216319 39.7109375 14.23828125 C38.75421143 14.15408936 37.79748535 14.06989746 36.81176758 13.9831543 C13.20237556 12.04079621 -10.73677163 13.60262101 -33.7265625 19.36328125 Z " fill="#131313" transform="translate(228.7265625,-0.36328125)"/>
<path d="M0 0 C0.79027588 0.00016113 1.58055176 0.00032227 2.39477539 0.00048828 C10.06159617 0.15000034 15.81941463 2.12960975 22.1875 6.375 C22.1875 7.035 22.1875 7.695 22.1875 8.375 C22.8475 8.375 23.5075 8.375 24.1875 8.375 C34.16323202 22.14872156 36.09457397 37.13370672 33.87841797 53.68310547 C32.39328241 62.18232952 29.83803705 70.65893311 24.1875 77.375 C23.5275 77.375 22.8675 77.375 22.1875 77.375 C22.1875 78.035 22.1875 78.695 22.1875 79.375 C21.5275 79.375 20.8675 79.375 20.1875 79.375 C20.1875 80.035 20.1875 80.695 20.1875 81.375 C16.14758236 85.11931391 12.03359295 87.77887878 7.1875 90.375 C6.28 90.931875 5.3725 91.48875 4.4375 92.0625 C-5.32742791 96.00602858 -21.41666095 96.1371655 -31.375 92.41796875 C-33.55176633 91.45542989 -35.69102673 90.4532902 -37.8125 89.375 C-37.8125 88.715 -37.8125 88.055 -37.8125 87.375 C-38.38871094 87.30925781 -38.96492188 87.24351562 -39.55859375 87.17578125 C-44.54849341 85.40293995 -47.27257042 79.75920967 -49.8125 75.375 C-54.78461904 62.42779893 -53.39800933 49.04933161 -47.98291016 36.44384766 C-44.01919191 28.25216327 -38.1080391 17.36193461 -29.671875 13.359375 C-27.65101897 12.52116387 -27.65101897 12.52116387 -26.85546875 10.4453125 C-25.45829237 7.67189122 -23.78657883 6.80700324 -21.125 5.25 C-20.29613281 4.75242187 -19.46726562 4.25484375 -18.61328125 3.7421875 C-12.47270397 0.7446951 -6.7188005 -0.01282078 0 0 Z M-40.8125 56.375 C-41.26708666 62.7392132 -40.52729471 67.09780635 -36.8125 72.375 C-30.46152334 79.33906599 -23.23415731 81.78229018 -13.96875 82.390625 C-9.11232222 82.36658328 -4.52402585 81.49723352 0.1875 80.375 C-1.28758957 73.93824553 -3.28816443 66.42617941 -8.8125 62.375 C-9.4725 62.375 -10.1325 62.375 -10.8125 62.375 C-10.8125 61.715 -10.8125 61.055 -10.8125 60.375 C-12.05985567 59.7240741 -13.31051832 59.07948331 -14.5625 58.4375 C-15.25859375 58.07785156 -15.9546875 57.71820313 -16.671875 57.34765625 C-20.91782132 55.41838502 -24.59363131 55.23923383 -29.25 55.25 C-30.36246094 55.24742187 -31.47492188 55.24484375 -32.62109375 55.2421875 C-35.47627492 55.36100777 -38.03757946 55.72146731 -40.8125 56.375 Z " fill="#080809" transform="translate(303.8125,321.625)"/>
<path d="M0 0 C12.37104355 -1.20459929 12.37104355 -1.20459929 17.75 2.875 C19.20874847 4.20527154 20.62442462 5.58389201 22 7 C22.77214844 7.77214844 23.54429688 8.54429687 24.33984375 9.33984375 C31.59771288 16.98415517 38.77300369 25.96311445 39.125 36.875 C39.08375 37.90625 39.0425 38.9375 39 40 C36.38973383 41.06344177 35.27984693 41.11046589 32.625 40.0625 C29.53766532 37.63673704 27.55950051 34.95115376 25.33203125 31.7421875 C24.10056385 29.86740273 24.10056385 29.86740273 22 29 C22.42611811 32.49416852 23.10545209 35.24605488 24.5 38.5 C25.90755457 41.78429399 26.75190137 44.4439197 27 48 C25 50 25 50 22.6875 50.375 C17.84913096 49.69987874 15.64747678 46.80497113 12.6875 43.125 C9.75890338 37.68279008 10.37437074 30.97257699 11 25 C12.0234375 22.57421875 12.0234375 22.57421875 13 21 C13.66 21 14.32 21 15 21 C12.94926484 17.00646311 11.17369302 14.78872558 7 13 C4.33333333 12.66666667 4.33333333 12.66666667 2 14 C0.13016255 17.47307328 0.13016255 17.47307328 -1 21 C-2.65 21 -4.3 21 -6 21 C-6.22384382 19.27277272 -6.42839969 17.54303993 -6.625 15.8125 C-6.74101563 14.84957031 -6.85703125 13.88664062 -6.9765625 12.89453125 C-7.00854571 8.94460493 -6.01188301 6.22269197 -3.5 3.1875 C-2 2 -2 2 0 2 C0 1.34 0 0.68 0 0 Z " fill="#191919" transform="translate(95,294)"/>
<path d="M0 0 C0.83789062 -0.03738281 1.67578125 -0.07476562 2.5390625 -0.11328125 C6.83064455 -0.17401118 9.74899213 -0.00965353 13.1953125 2.703125 C15.625 5.375 15.625 5.375 16.125 8.5 C15.625 11.375 15.625 11.375 13.625 14.375 C10.4474468 15.36798538 7.17640244 15.51004232 3.875 15.8125 C-5.53787578 16.76903671 -12.35238309 19.16331881 -20.5546875 23.9140625 C-23.375 25.375 -23.375 25.375 -26.375 25.375 C-26.375 26.035 -26.375 26.695 -26.375 27.375 C-28.38671875 29.28515625 -28.38671875 29.28515625 -31.0625 31.4375 C-32.36767578 32.50677734 -32.36767578 32.50677734 -33.69921875 33.59765625 C-36.40601897 35.39560384 -38.14323651 36.19331653 -41.375 36.375 C-42.035 35.715 -42.695 35.055 -43.375 34.375 C-42.9294539 25.01853185 -36.97279203 17.52512278 -30.375 11.375 C-19.34237455 2.77498976 -19.34237455 2.77498976 -13.375 3.375 C-13.375 2.715 -13.375 2.055 -13.375 1.375 C-8.91253761 0.12863589 -4.60879956 0.0772817 0 0 Z " fill="#0D0D0E" transform="translate(228.375,171.625)"/>
<path d="M0 0 C3.87148295 1.89490305 6.2063099 4.00109497 7.66796875 8.22265625 C9.13548634 15.40159367 8.78879441 21.9864536 5.1015625 28.34375 C2.33969455 32.08039487 0.17547688 33.64044689 -4.3359375 34.40625 C-8.95377776 34.6828594 -11.39222993 33.4325519 -14.8984375 30.34375 C-17.85265856 27.34722505 -18.2955912 24.8796863 -18.36645508 20.70776367 C-18.35638428 20.01013916 -18.34631348 19.31251465 -18.3359375 18.59375 C-18.32908936 17.87872314 -18.32224121 17.16369629 -18.31518555 16.42700195 C-18.13827962 10.61428393 -17.29731183 7.02868489 -13.8984375 2.34375 C-9.73353546 -1.25832744 -5.23169264 -1.80848635 0 0 Z " fill="#121212" transform="translate(253.8984375,232.65625)"/>
<path d="M0 0 C0.680625 -0.00515625 1.36125 -0.0103125 2.0625 -0.015625 C4 0.25 4 0.25 7 2.25 C7 2.91 7 3.57 7 4.25 C7.66 4.25 8.32 4.25 9 4.25 C13.02934142 10.29401212 13.72118603 16.13955651 13 23.25 C12.0688991 27.08351697 10.4445311 29.76842464 7.75 32.6875 C4.08252708 34.77129143 2.16565115 34.96821572 -2 34.25 C-6.20690519 31.53888332 -10.13422418 28.10706022 -11.625 23.1875 C-12.34656175 17.53526627 -12.60337416 11.76000803 -11 6.25 C-10.34 6.25 -9.68 6.25 -9 6.25 C-8.731875 5.63125 -8.46375 5.0125 -8.1875 4.375 C-6.18355923 0.78900073 -3.88875758 -0.02946028 0 0 Z " fill="#070707" transform="translate(334,224.75)"/>
<path d="M0 0 C3.44260084 -0.49180012 4.71620517 -0.20765475 7.5625 1.875 C10.76200551 5.97693014 12.32643759 10.10972023 14 15 C14.40025391 16.07314453 14.40025391 16.07314453 14.80859375 17.16796875 C19.22481244 30.09627736 20.21586101 44.44204395 20.7890625 58.0078125 C20.80262931 60.92459942 20.80262931 60.92459942 22 63 C20.515 63.99 20.515 63.99 19 65 C17.80767387 67.05003955 17.80767387 67.05003955 17 69 C15.515 68.505 15.515 68.505 14 68 C14.99 67.01 14.99 67.01 16 66 C15.01 65.67 14.02 65.34 13 65 C10.04679582 60.57019373 9.87746911 56.37126605 9.53515625 51.140625 C9.45716797 50.02429688 9.37917969 48.90796875 9.29882812 47.7578125 C9.1423415 45.43508548 8.98865649 43.11216786 8.83789062 40.7890625 C8.38261849 34.34862748 7.66159906 28.24146234 6 22 C5.505 20.10121094 5.505 20.10121094 5 18.1640625 C4.67 16.99617188 4.34 15.82828125 4 14.625 C3.67 13.44164062 3.34 12.25828125 3 11.0390625 C2.10795416 7.87285417 2.10795416 7.87285417 0 5 C-0.125 2.3125 -0.125 2.3125 0 0 Z " fill="#181818" transform="translate(350,208)"/>
<path d="M0 0 C3.44260084 -0.49180012 4.71620517 -0.20765475 7.5625 1.875 C11.55969992 6.99961528 14 12.46695804 14 19 C13.01 18.67 12.02 18.34 11 18 C10.67 17.01 10.34 16.02 10 15 C7.64046906 17.35953094 7.50858587 18.77895617 7 22 C6.67 22 6.34 22 6 22 C5.60167969 20.53626953 5.60167969 20.53626953 5.1953125 19.04296875 C4.83882407 17.75773414 4.48203761 16.47258216 4.125 15.1875 C3.77695312 13.92292969 3.42890625 12.65835938 3.0703125 11.35546875 C2.14299705 7.91591287 2.14299705 7.91591287 0 5 C-0.125 2.3125 -0.125 2.3125 0 0 Z " fill="#2D2D2D" transform="translate(350,208)"/>
<path d="M0 0 C0 0.66 0 1.32 0 2 C-0.66 2 -1.32 2 -2 2 C-2.2475 2.556875 -2.495 3.11375 -2.75 3.6875 C-4.64138717 7.18656627 -6.39009106 10.41864399 -10.25 11.8125 C-10.8275 11.874375 -11.405 11.93625 -12 12 C-12 13.32 -12 14.64 -12 16 C-12.66 16 -13.32 16 -14 16 C-14 16.66 -14 17.32 -14 18 C-14.66 18 -15.32 18 -16 18 C-15.73606499 21.43230448 -15.73606499 21.43230448 -15 25 C-14.01 25.66 -13.02 26.32 -12 27 C-14.375 27.625 -14.375 27.625 -17 28 C-17.66 27.34 -18.32 26.68 -19 26 C-18.54801106 16.50823224 -12.47101583 9.40782231 -6 3 C-2.38137472 0 -2.38137472 0 0 0 Z " fill="#414141" transform="translate(204,180)"/>
<path d="M0 0 C0 3 0 3 -1.828125 5.12109375 C-2.62734375 5.88550781 -3.4265625 6.64992187 -4.25 7.4375 C-5.03890625 8.19933594 -5.8278125 8.96117187 -6.640625 9.74609375 C-8.12832544 11.16729102 -9.63525834 12.56887098 -11.16796875 13.94140625 C-13.32314001 16.36310189 -14.08582428 18.42199166 -15.0625 21.5 C-16.25626949 25.22988921 -17.48527199 27.97947684 -20 31 C-19.67 28.36 -19.34 25.72 -19 23 C-18.34 23 -17.68 23 -17 23 C-16.9175 22.319375 -16.835 21.63875 -16.75 20.9375 C-14.37922727 11.65197347 -7.73116774 5.15411183 0 0 Z " fill="#3C3C3C" transform="translate(207,208)"/>
<path d="M0 0 C0.33 0 0.66 0 1 0 C1.33 1.65 1.66 3.3 2 5 C2.33 5 2.66 5 3 5 C3.05823729 9.5416125 3.09367675 14.0831284 3.125 18.625 C3.15013672 20.55279297 3.15013672 20.55279297 3.17578125 22.51953125 C3.18222656 23.76347656 3.18867188 25.00742187 3.1953125 26.2890625 C3.20578613 27.43068848 3.21625977 28.57231445 3.22705078 29.74853516 C2.99052625 33.13566817 2.2095701 35.84005042 1 39 C0.67 39 0.34 39 0 39 C0 26.13 0 13.26 0 0 Z " fill="#5B5B5B" transform="translate(367,296)"/>
<path d="M0 0 C0.66 0.33 1.32 0.66 2 1 C2.50329692 12.38942295 0.68495325 22.24954944 -3 33 C-3.66 32.01 -4.32 31.02 -5 30 C-4.34 30 -3.68 30 -3 30 C-3 27.36 -3 24.72 -3 22 C-2.34 22 -1.68 22 -1 22 C-0.67 14.74 -0.34 7.48 0 0 Z " fill="#616161" transform="translate(284,245)"/>
<path d="M0 0 C7.28044855 0.01888573 14.45465561 0.41349417 21.69921875 1.1328125 C21.69921875 1.4628125 21.69921875 1.7928125 21.69921875 2.1328125 C10.34654133 2.92849452 -0.920963 3.26099568 -12.30078125 3.1328125 C-12.30078125 2.8028125 -12.30078125 2.4728125 -12.30078125 2.1328125 C-11.34365234 2.04193359 -11.34365234 2.04193359 -10.3671875 1.94921875 C-9.12775391 1.82353516 -9.12775391 1.82353516 -7.86328125 1.6953125 C-7.03957031 1.61410156 -6.21585938 1.53289063 -5.3671875 1.44921875 C-2.85476253 1.06451852 -2.6104772 0.15068969 0 0 Z " fill="#5E5E5F" transform="translate(235.30078125,10.8671875)"/>
<path d="M0 0 C0.99 0 1.98 0 3 0 C3 0.66 3 1.32 3 2 C3.66 2.33 4.32 2.66 5 3 C4.01 3 3.02 3 2 3 C2 8.61 2 14.22 2 20 C1.34 20 0.68 20 0 20 C0 20.66 0 21.32 0 22 C-0.99 22.33 -1.98 22.66 -3 23 C-3.33 22.34 -3.66 21.68 -4 21 C-2.68 20.34 -1.36 19.68 0 19 C0 12.73 0 6.46 0 0 Z " fill="#6C6C6C" transform="translate(284,135)"/>
<path d="M0 0 C0.33 0.66 0.66 1.32 1 2 C0.34 2 -0.32 2 -1 2 C-1.38671875 2.87398437 -1.38671875 2.87398437 -1.78125 3.765625 C-3.09834017 6.1802903 -4.55088384 7.81740177 -6.5 9.75 C-7.1084375 10.36359375 -7.716875 10.9771875 -8.34375 11.609375 C-10 13 -10 13 -12 13 C-12.66 14.98 -13.32 16.96 -14 19 C-14.66 19 -15.32 19 -16 19 C-14.66749209 15.4124787 -13.169283 12.1635377 -11 9 C-10.34 9 -9.68 9 -9 9 C-9 8.34 -9 7.68 -9 7 C-8.34 7 -7.68 7 -7 7 C-6.6596875 6.1028125 -6.6596875 6.1028125 -6.3125 5.1875 C-4.66188867 2.43648112 -2.8027919 1.47515363 0 0 Z " fill="#555555" transform="translate(319,195)"/>
<path d="M0 0 C2.93756119 -0.0269501 5.87487555 -0.04681474 8.8125 -0.0625 C9.64587891 -0.07087891 10.47925781 -0.07925781 11.33789062 -0.08789062 C12.14033203 -0.09111328 12.94277344 -0.09433594 13.76953125 -0.09765625 C14.87711792 -0.10551147 14.87711792 -0.10551147 16.00708008 -0.11352539 C18 0 18 0 21 1 C21.33 1.99 21.66 2.98 22 4 C21.18273437 3.84660156 20.36546875 3.69320312 19.5234375 3.53515625 C15.55375228 2.9322218 11.63053967 2.65842036 7.625 2.4375 C6.88894531 2.39431641 6.15289062 2.35113281 5.39453125 2.30664062 C3.59651932 2.20156201 1.79828042 2.10037907 0 2 C0 1.34 0 0.68 0 0 Z " fill="#5E5E5E" transform="translate(226,210)"/>
<path d="M0 0 C1.40185547 0.21269531 1.40185547 0.21269531 2.83203125 0.4296875 C4.28416016 0.66945313 4.28416016 0.66945313 5.765625 0.9140625 C6.74917969 1.06617188 7.73273438 1.21828125 8.74609375 1.375 C11.17128354 1.75172851 13.5940088 2.14011106 16.015625 2.5390625 C16.015625 2.8690625 16.015625 3.1990625 16.015625 3.5390625 C-0.69280325 3.908083 -0.69280325 3.908083 -8.984375 1.5390625 C-5.71125731 -0.45528654 -3.7552628 -0.59534654 0 0 Z " fill="#4F4F4F" transform="translate(117.984375,369.4609375)"/>
<path d="M0 0 C0.66 0 1.32 0 2 0 C2 1.32 2 2.64 2 4 C0.824375 4.37125 0.824375 4.37125 -0.375 4.75 C-3.45455085 6.21645279 -3.67019235 6.98576932 -5 10 C-6.8125 12.25 -6.8125 12.25 -9 14 C-11.75 14.25 -11.75 14.25 -14 14 C-10.79200533 10.65833889 -7.33509585 7.67444912 -3.8046875 4.68359375 C-1.78876903 2.93233959 -1.78876903 2.93233959 0 0 Z " fill="#474747" transform="translate(337,414)"/>
<path d="M0 0 C0.33 0.66 0.66 1.32 1 2 C0.19175781 2.04898438 -0.61648438 2.09796875 -1.44921875 2.1484375 C-2.51785156 2.22320312 -3.58648437 2.29796875 -4.6875 2.375 C-5.74324219 2.44460937 -6.79898437 2.51421875 -7.88671875 2.5859375 C-10.91556178 2.98876982 -13.19487729 3.84720985 -16 5 C-18.8125 4.625 -18.8125 4.625 -21 4 C-21 4.66 -21 5.32 -21 6 C-22.65 6 -24.3 6 -26 6 C-25 4 -25 4 -22.734375 3.18359375 C-15.1537557 1.28843893 -7.8018015 0.36492297 0 0 Z " fill="#656565" transform="translate(347,189)"/>
<path d="M0 0 C0.66 0 1.32 0 2 0 C1.65978036 3.17538332 0.97533396 4.02276865 -1.4375 6.25 C-4 8 -4 8 -6 8 C-6.226875 8.598125 -6.45375 9.19625 -6.6875 9.8125 C-8.33811133 12.56351888 -10.1972081 13.52484637 -13 15 C-11.60249952 11.84164893 -9.94801766 9.67727175 -7.5 7.25 C-6.8915625 6.63640625 -6.283125 6.0228125 -5.65625 5.390625 C-4 4 -4 4 -2 4 C-1.34 2.68 -0.68 1.36 0 0 Z " fill="#5A5A5A" transform="translate(278,330)"/>
<path d="M0 0 C9.41002278 0.96355353 9.41002278 0.96355353 14 2 C14 2.66 14 3.32 14 4 C18.29 4 22.58 4 27 4 C27 4.33 27 4.66 27 5 C7.92406395 5.4884308 7.92406395 5.4884308 1.4375 1.375 C0.963125 0.92125 0.48875 0.4675 0 0 Z " fill="#888888" transform="translate(216,301)"/>
<path d="M0 0 C0 0.66 0 1.32 0 2 C-1.5778125 2.433125 -1.5778125 2.433125 -3.1875 2.875 C-6.84074219 3.86568795 -6.84074219 3.86568795 -9.5625 5.125 C-12.48252424 6.17321383 -14.92100701 6.14320898 -18 6 C-18 5.01 -18 4.02 -18 3 C-17.34 3 -16.68 3 -16 3 C-15.67 2.34 -15.34 1.68 -15 1 C-14.67 1.66 -14.34 2.32 -14 3 C-12.9275 2.690625 -11.855 2.38125 -10.75 2.0625 C-3.47058824 0 -3.47058824 0 0 0 Z " fill="#686868" transform="translate(356,107)"/>
<path d="M0 0 C5.27315333 0.4452885 10.01770224 1.08373163 15 3 C15 3.66 15 4.32 15 5 C15.99 5 16.98 5 18 5 C17.67 5.66 17.34 6.32 17 7 C14.35110382 6.2175752 11.70620175 5.42462432 9.0625 4.625 C8.30775391 4.40328125 7.55300781 4.1815625 6.77539062 3.953125 C4.83152088 3.36037548 2.91313548 2.68548828 1 2 C0.67 1.34 0.34 0.68 0 0 Z " fill="#545454" transform="translate(316,23)"/>
<path d="M0 0 C1.32 0 2.64 0 4 0 C4 0.66 4 1.32 4 2 C-2.07027358 4.1583195 -7.59370576 4.20852314 -14 4 C-14 3.34 -14 2.68 -14 2 C-9.38 2 -4.76 2 0 2 C0 1.34 0 0.68 0 0 Z " fill="#515151" transform="translate(245,292)"/>
<path d="M0 0 C0.66 0.33 1.32 0.66 2 1 C1.67 1.66 1.34 2.32 1 3 C0.34 3 -0.32 3 -1 3 C-1.433125 3.928125 -1.433125 3.928125 -1.875 4.875 C-3 7 -3 7 -5 9 C-5.99 8.67 -6.98 8.34 -8 8 C-8.33 8.99 -8.66 9.98 -9 11 C-10.32 10.67 -11.64 10.34 -13 10 C-11.2126038 8.66094733 -9.41995047 7.32890934 -7.625 6 C-6.62726563 5.2575 -5.62953125 4.515 -4.6015625 3.75 C-2 2 -2 2 0 2 C0 1.34 0 0.68 0 0 Z " fill="#626262" transform="translate(394,437)"/>
<path d="M0 0 C1.30710938 -0.01836914 1.30710938 -0.01836914 2.640625 -0.03710938 C3.88972656 -0.04000977 3.88972656 -0.04000977 5.1640625 -0.04296875 C5.92412598 -0.04707764 6.68418945 -0.05118652 7.46728516 -0.05541992 C9.375 0.1875 9.375 0.1875 11.375 2.1875 C10.385 2.5175 9.395 2.8475 8.375 3.1875 C8.375 2.5275 8.375 1.8675 8.375 1.1875 C5.72875716 1.32771805 3.08315422 1.47439776 0.4375 1.625 C-0.69461914 1.68397461 -0.69461914 1.68397461 -1.84960938 1.74414062 C-5.54444187 1.62788024 -5.54444187 1.62788024 -8.625 3.1875 C-10.29117115 3.22813832 -11.95888095 3.230221 -13.625 3.1875 C-13.625 2.5275 -13.625 1.8675 -13.625 1.1875 C-9.080746 -0.10560663 -4.6933937 0.00350253 0 0 Z " fill="#929292" transform="translate(228.625,171.8125)"/>
<path d="M0 0 C0.66 0.66 1.32 1.32 2 2 C-3.76081841 3.2982126 -9.08739655 4.25706972 -15 4 C-11.08552207 0.08552207 -5.35016323 -0.4976896 0 0 Z " fill="#575757" transform="translate(298,229)"/>
<path d="M0 0 C0.99 0.495 0.99 0.495 2 1 C2.4140625 3.3984375 2.4140625 3.3984375 2.625 6.375 C2.69976562 7.35210937 2.77453125 8.32921875 2.8515625 9.3359375 C2.95663329 11.22168165 3 13.11133093 3 15 C2.01 15 1.02 15 0 15 C0 10.05 0 5.1 0 0 Z " fill="#3F3F3F" transform="translate(118,101)"/>
<path d="M0 0 C2.31 0.33 4.62 0.66 7 1 C7 1.66 7 2.32 7 3 C8.32 2.67 9.64 2.34 11 2 C11.66 3.32 12.32 4.64 13 6 C13.99 6 14.98 6 16 6 C16 6.66 16 7.32 16 8 C10.31497465 6.35433477 5.23318364 3.70967216 0 1 C0 0.67 0 0.34 0 0 Z " fill="#5E5E5E" transform="translate(348,36)"/>
<path d="M0 0 C-9.93047158 3.70737606 -9.93047158 3.70737606 -15 3 C-17.375 1.5 -17.375 1.5 -19 0 C-18.41992188 0.01160156 -17.83984375 0.02320313 -17.2421875 0.03515625 C-13.62067839 0.07698886 -10.26912374 0.04570026 -6.6875 -0.5625 C-3.97893667 -1.00342891 -2.58061595 -0.74282122 0 0 Z " fill="#7F7F7F" transform="translate(137,358)"/>
<path d="M0 0 C0.33 1.32 0.66 2.64 1 4 C0.01 4.33 -0.98 4.66 -2 5 C-2.268125 5.969375 -2.53625 6.93875 -2.8125 7.9375 C-3.204375 8.948125 -3.59625 9.95875 -4 11 C-7.125 12.375 -7.125 12.375 -10 13 C-9.61328125 12.56429688 -9.2265625 12.12859375 -8.828125 11.6796875 C-5.56015499 7.94255348 -2.65859411 4.1923984 0 0 Z " fill="#545454" transform="translate(269,274)"/>
<path d="M0 0 C0.66 0.99 1.32 1.98 2 3 C1.01 3.495 1.01 3.495 0 4 C-1.10511341 6.70685674 -1.98683351 9.46209838 -2.90234375 12.23828125 C-3.96475515 14.91132345 -5.16772838 16.80231808 -7 19 C-6.67 16.36 -6.34 13.72 -6 11 C-5.34 11 -4.68 11 -4 11 C-3.896875 10.29875 -3.79375 9.5975 -3.6875 8.875 C-2.90640997 5.60862353 -1.57941257 2.9528148 0 0 Z " fill="#656565" transform="translate(194,220)"/>
<path d="M0 0 C0.66 0.33 1.32 0.66 2 1 C1.01 3.31 0.02 5.62 -1 8 C-1.66 8 -2.32 8 -3 8 C-3 8.66 -3 9.32 -3 10 C-3.66 10 -4.32 10 -5 10 C-5 10.99 -5 11.98 -5 13 C-5.99 13.33 -6.98 13.66 -8 14 C-6.95211676 10.76108816 -5.6420687 8.42363434 -3.4375 5.875 C-0.85782237 3.19395804 -0.85782237 3.19395804 0 0 Z " fill="#6C6C6C" transform="translate(49,97)"/>
<path d="M0 0 C0.33 0 0.66 0 1 0 C1.06058594 0.60328125 1.12117187 1.2065625 1.18359375 1.828125 C1.26738281 2.62734375 1.35117187 3.4265625 1.4375 4.25 C1.51871094 5.03890625 1.59992187 5.8278125 1.68359375 6.640625 C1.93860618 8.96126254 1.93860618 8.96126254 2.5625 11 C3.08817412 13.4030817 2.88444586 15.31752014 2.5625 17.75 C2.46066406 18.54921875 2.35882813 19.3484375 2.25390625 20.171875 C2.17011719 20.77515625 2.08632813 21.3784375 2 22 C1.67 22 1.34 22 1 22 C-0.17402193 14.66236293 -0.09377123 7.41834582 0 0 Z " fill="#89898B" transform="translate(0,271)"/>
<path d="M0 0 C0 0.99 0 1.98 0 3 C-5.08086796 3.84681133 -9.84828377 4.09038099 -15 4 C-15 3.67 -15 3.34 -15 3 C-13.35 3 -11.7 3 -10 3 C-10 2.34 -10 1.68 -10 1 C-2.25 0 -2.25 0 0 0 Z " fill="#2F2F31" transform="translate(223,12)"/>
<path d="M0 0 C0.33 0.66 0.66 1.32 1 2 C-0.32 2.33 -1.64 2.66 -3 3 C-3 3.66 -3 4.32 -3 5 C-9.5 7.125 -9.5 7.125 -14 6 C-9.38 4.02 -4.76 2.04 0 0 Z " fill="#606060" transform="translate(350,466)"/>
<path d="M0 0 C0.99 0.33 1.98 0.66 3 1 C3 7.93 3 14.86 3 22 C2.34 22.33 1.68 22.66 1 23 C1.01160156 21.84242188 1.02320313 20.68484375 1.03515625 19.4921875 C1.04454077 17.95312662 1.05364026 16.41406399 1.0625 14.875 C1.07087891 14.11445313 1.07925781 13.35390625 1.08789062 12.5703125 C1.10646509 8.2610356 0.86117265 4.24483526 0 0 Z " fill="#4D4D4D" transform="translate(378,227)"/>
<path d="M0 0 C0.99 0.33 1.98 0.66 3 1 C3 7.27 3 13.54 3 20 C2.67 20 2.34 20 2 20 C1.93941406 19.15695313 1.87882812 18.31390625 1.81640625 17.4453125 C1.73261719 16.34960938 1.64882813 15.25390625 1.5625 14.125 C1.48128906 13.03445312 1.40007812 11.94390625 1.31640625 10.8203125 C1.16998297 8.05271029 1.16998297 8.05271029 0 6 C-0.039992 4.00039988 -0.04346799 1.99952758 0 0 Z " fill="#6C6C6C" transform="translate(357,231)"/>
<path d="M0 0 C0.33 0 0.66 0 1 0 C1.2358396 5.77807024 0.86783046 10.51324804 -1 16 C-1.33 16 -1.66 16 -2 16 C-2.20674944 10.21101581 -1.59162079 5.57067277 0 0 Z " fill="#5B5B5B" transform="translate(302,214)"/>
<path d="M0 0 C0.74056641 0.00902344 1.48113281 0.01804688 2.24414062 0.02734375 C4.05873467 0.05075787 5.87316071 0.08662385 7.6875 0.125 C7.6875 0.455 7.6875 0.785 7.6875 1.125 C6.16769531 1.18107422 6.16769531 1.18107422 4.6171875 1.23828125 C3.26559061 1.30398388 1.91402971 1.37042971 0.5625 1.4375 C-0.43523437 1.47133789 -0.43523437 1.47133789 -1.453125 1.50585938 C-6.07167371 1.75489877 -9.32625105 2.80900178 -13.3125 5.125 C-13.3125 4.135 -13.3125 3.145 -13.3125 2.125 C-8.90220217 -0.08449832 -4.82309676 -0.1120648 0 0 Z " fill="#A3A3A3" transform="translate(322.3125,174.875)"/>
<path d="M0 0 C0 0.66 0 1.32 0 2 C-5.32932432 3.70084819 -10.43109483 4.52013969 -16 5 C-14.68 4.67 -13.36 4.34 -12 4 C-12 3.34 -12 2.68 -12 2 C-10.7625 1.67 -9.525 1.34 -8.25 1 C-7.55390625 0.814375 -6.8578125 0.62875 -6.140625 0.4375 C-4 0 -4 0 0 0 Z " fill="#606060" transform="translate(318,447)"/>
<path d="M0 0 C0.33 0 0.66 0 1 0 C1.1546875 1.423125 1.1546875 1.423125 1.3125 2.875 C1.68539295 6.29107501 1.68539295 6.29107501 5 8 C2.625 8.625 2.625 8.625 0 9 C-0.66 8.34 -1.32 7.68 -2 7 C-1.43181818 1.43181818 -1.43181818 1.43181818 0 0 Z " fill="#3E3E41" transform="translate(187,199)"/>
<path d="M0 0 C1.32 0.66 2.64 1.32 4 2 C1.8765984 2.83739781 -0.2487728 3.66980283 -2.375 4.5 C-3.55835938 4.9640625 -4.74171875 5.428125 -5.9609375 5.90625 C-9 7 -9 7 -11 7 C-10.67 6.01 -10.34 5.02 -10 4 C-8.68 4 -7.36 4 -6 4 C-6 3.34 -6 2.68 -6 2 C-4.02 2 -2.04 2 0 2 C0 1.34 0 0.68 0 0 Z " fill="#565656" transform="translate(167,25)"/>
<path d="M0 0 C0.33 0 0.66 0 1 0 C0.98839844 0.77085937 0.97679687 1.54171875 0.96484375 2.3359375 C0.95582031 3.33882813 0.94679687 4.34171875 0.9375 5.375 C0.92589844 6.37273437 0.91429687 7.37046875 0.90234375 8.3984375 C0.81993398 10.98432453 0.81993398 10.98432453 2 13 C1.83219837 15.69565202 1.38844355 18.32405554 1 21 C0.67 21 0.34 21 0 21 C-1.44987304 13.93186891 -1.44987304 7.06813109 0 0 Z " fill="#818182" transform="translate(252,370)"/>
<path d="M0 0 C0.33 0 0.66 0 1 0 C1.06058594 1.02480469 1.12117188 2.04960937 1.18359375 3.10546875 C1.26805026 4.46615695 1.35269567 5.82683343 1.4375 7.1875 C1.47681641 7.86103516 1.51613281 8.53457031 1.55664062 9.22851562 C1.78927565 12.89699102 2.17207011 16.41694206 3 20 C2.34 20 1.68 20 1 20 C-0.1482685 17.703463 -0.11561175 16.41686833 -0.09765625 13.8671875 C-0.09443359 13.06152344 -0.09121094 12.25585938 -0.08789062 11.42578125 C-0.07951172 10.58402344 -0.07113281 9.74226562 -0.0625 8.875 C-0.05798828 8.02550781 -0.05347656 7.17601562 -0.04882812 6.30078125 C-0.03702874 4.20049091 -0.01909306 2.1002367 0 0 Z " fill="#9A9A9A" transform="translate(310,234)"/>
<path d="M0 0 C1 2 1 2 0.22265625 4.6015625 C-0.16019531 5.59929687 -0.54304688 6.59703125 -0.9375 7.625 C-1.50791016 9.12933594 -1.50791016 9.12933594 -2.08984375 10.6640625 C-2.39019531 11.43492187 -2.69054687 12.20578125 -3 13 C-3.33 13 -3.66 13 -4 13 C-3.91266424 11.39482903 -3.80447776 9.79078338 -3.6875 8.1875 C-3.62949219 7.29417969 -3.57148437 6.40085937 -3.51171875 5.48046875 C-2.93686419 2.69396 -2.1793144 1.75864246 0 0 Z " fill="#828282" transform="translate(92,297)"/>
<path d="M0 0 C0.66 0.99 1.32 1.98 2 3 C1.525625 3.474375 1.05125 3.94875 0.5625 4.4375 C-1.68076096 8.11644797 -1.73739578 11.7621112 -2 16 C-2.33 16 -2.66 16 -3 16 C-3.027193 14.41676312 -3.04648306 12.83338938 -3.0625 11.25 C-3.07410156 10.36828125 -3.08570313 9.4865625 -3.09765625 8.578125 C-3.00826198 6.2181162 -2.66912821 4.25501476 -2 2 C-1.34 2 -0.68 2 0 2 C0 1.34 0 0.68 0 0 Z " fill="#7C7C7C" transform="translate(325,229)"/>
<path d="M0 0 C2.27076842 -0.02699725 4.54162821 -0.04639453 6.8125 -0.0625 C8.07707031 -0.07410156 9.34164063 -0.08570313 10.64453125 -0.09765625 C14 0 14 0 17 1 C17.33 1.99 17.66 2.98 18 4 C16.88625 3.5359375 16.88625 3.5359375 15.75 3.0625 C10.55297775 1.59001036 5.37512737 1.33050945 0 1 C0 0.67 0 0.34 0 0 Z " fill="#8F8F8F" transform="translate(341,202)"/>
<path d="M0 0 C0.86625 0.4640625 0.86625 0.4640625 1.75 0.9375 C3.92954724 2.07743133 3.92954724 2.07743133 6.1875 2.4375 C6.785625 2.623125 7.38375 2.80875 8 3 C8.33 3.99 8.66 4.98 9 6 C4.87248551 5.39301257 1.6678852 3.96189209 -2 2 C-1.34 1.34 -0.68 0.68 0 0 Z " fill="#636363" transform="translate(131,474)"/>
<path d="M0 0 C1.07765625 0.10183594 2.1553125 0.20367187 3.265625 0.30859375 C4.08546875 0.39238281 4.9053125 0.47617187 5.75 0.5625 C5.75 0.8925 5.75 1.2225 5.75 1.5625 C0.47 2.2225 -4.81 2.8825 -10.25 3.5625 C-10.25 2.5725 -10.25 1.5825 -10.25 0.5625 C-6.70049966 -0.60056443 -3.69176052 -0.36115049 0 0 Z " fill="#7E7E7E" transform="translate(102.25,277.4375)"/>
<path d="M0 0 C3.80026809 2.53351206 4.50840015 4.74894043 6 9 C5.67 9.99 5.34 10.98 5 12 C2.80808632 9.80808632 2.72130648 8.88522592 2 6 C1.34 5.34 0.68 4.68 0 4 C0 2.68 0 1.36 0 0 Z " fill="#646464" transform="translate(382,210)"/>
<path d="M0 0 C2.3129482 2.3129482 2.49580975 3.47904875 3.125 6.625 C3.29257812 7.44226563 3.46015625 8.25953125 3.6328125 9.1015625 C3.81457031 10.04128906 3.81457031 10.04128906 4 11 C3.67 10.34 3.34 9.68 3 9 C2.01 8.67 1.02 8.34 0 8 C-1.1875 4.4375 -1.1875 4.4375 -2 1 C-1.34 0.67 -0.68 0.34 0 0 Z " fill="#535353" transform="translate(352,165)"/>
<path d="M0 0 C3.11547441 0.67883043 5.85137721 1.74106902 8.75 3.0625 C9.54921875 3.42472656 10.3484375 3.78695313 11.171875 4.16015625 C11.77515625 4.43730469 12.3784375 4.71445312 13 5 C13 5.33 13 5.66 13 6 C11.35 6 9.7 6 8 6 C8 5.34 8 4.68 8 4 C5.36 3.34 2.72 2.68 0 2 C0 1.34 0 0.68 0 0 Z " fill="#595959" transform="translate(336,15)"/>
<path d="M0 0 C0.33 0 0.66 0 1 0 C1.06058594 1.13179687 1.12117188 2.26359375 1.18359375 3.4296875 C1.26799917 4.91147145 1.35264717 6.3932416 1.4375 7.875 C1.47681641 8.62136719 1.51613281 9.36773437 1.55664062 10.13671875 C1.71573624 14.19986864 1.71573624 14.19986864 3 18 C2.01 18.33 1.02 18.66 0 19 C-1.66413655 15.6717269 -0.81867406 12.00266027 -0.5625 8.375 C-0.51029297 7.57320313 -0.45808594 6.77140625 -0.40429688 5.9453125 C-0.27451629 3.96320897 -0.13790265 1.98155501 0 0 Z " fill="#666666" transform="translate(369,253)"/>
<path d="M0 0 C-3.70707348 2.47138232 -5.61041608 2.07439973 -10 2 C-12.0064731 2.29185063 -14.00994193 2.61169599 -16 3 C-16 2.34 -16 1.68 -16 1 C-5.62642369 -1.48063781 -5.62642369 -1.48063781 0 0 Z " fill="#717171" transform="translate(242,185)"/>
<path d="M0 0 C0.33 0.66 0.66 1.32 1 2 C-2.99613521 5.71069698 -5.37082652 7.59791618 -11 8 C-7.45960866 5.0843836 -3.8373228 2.49872182 0 0 Z " fill="#525252" transform="translate(144,96)"/>
<path d="M0 0 C2.625 0.375 2.625 0.375 5 1 C5 1.66 5 2.32 5 3 C7.31 3.33 9.62 3.66 12 4 C8.45332822 5.25127906 6.27746562 4.72285053 2.75 3.5625 C1.85796875 3.27503906 0.9659375 2.98757813 0.046875 2.69140625 C-0.62859375 2.46324219 -1.3040625 2.23507812 -2 2 C-1.34 1.34 -0.68 0.68 0 0 Z " fill="#545454" transform="translate(227,441)"/>
<path d="M0 0 C0.33 0 0.66 0 1 0 C3.27141454 5.39460953 3.20413361 10.26157749 3 16 C2.67 16 2.34 16 2 16 C1.855625 14.865625 1.71125 13.73125 1.5625 12.5625 C1.38828522 9.19222799 1.38828522 9.19222799 0 8 C-0.14115161 5.32941149 -0.04247107 2.67567762 0 0 Z " fill="#8C8C8C" transform="translate(344,232)"/>
<path d="M0 0 C2.27477677 3.53854164 1.99082706 5.70947373 1.125 9.75 C0.92132813 10.73484375 0.71765625 11.7196875 0.5078125 12.734375 C0.34023438 13.48203125 0.17265625 14.2296875 0 15 C-0.33 15 -0.66 15 -1 15 C-1.10251672 9.87416389 -1.03590199 5.05002222 0 0 Z " fill="#7A7A7A" transform="translate(2,206)"/>
<path d="M0 0 C0.99 0.33 1.98 0.66 3 1 C3.80078125 2.77734375 3.80078125 2.77734375 4.3125 4.9375 C4.49425781 5.64777344 4.67601562 6.35804688 4.86328125 7.08984375 C4.93095703 8.03537109 4.93095703 8.03537109 5 9 C4.34 9.66 3.68 10.32 3 11 C2.01 7.37 1.02 3.74 0 0 Z " fill="#424242" transform="translate(465,159)"/>
<path d="M0 0 C1.77155654 0.11429397 3.54226229 0.24183037 5.3125 0.375 C6.79169922 0.47941406 6.79169922 0.47941406 8.30078125 0.5859375 C11 1 11 1 14 3 C4.58997722 3.3690205 4.58997722 3.3690205 0 1 C0 0.67 0 0.34 0 0 Z " fill="#828282" transform="translate(283,1)"/>
<path d="M0 0 C0.99 1.32 1.98 2.64 3 4 C0.83032311 4.95465783 -0.56328793 5.14401212 -2.82421875 4.3984375 C-4.5684743 3.64129615 -6.28627131 2.82390802 -8 2 C-4.94736336 1.01879536 -3.05263664 1.01879536 0 2 C0 1.34 0 0.68 0 0 Z " fill="#4E4E4E" transform="translate(158,484)"/>
<path d="M0 0 C0.66 0.66 1.32 1.32 2 2 C2.5775 1.649375 3.155 1.29875 3.75 0.9375 C6.35801776 -0.14917407 7.39417629 0.06934867 10 1 C9.01 1 8.02 1 7 1 C7 1.66 7 2.32 7 3 C4.69 3.66 2.38 4.32 0 5 C0 3.35 0 1.7 0 0 Z " fill="#747474" transform="translate(140,258)"/>
<path d="M0 0 C2.87985784 0.42955863 5.53813177 1.52295051 8.25 2.5625 C8.95640625 2.83191406 9.6628125 3.10132813 10.390625 3.37890625 C10.92171875 3.58386719 11.4528125 3.78882813 12 4 C9.01316063 5.49341969 7.04839022 4.40648676 3.875 3.5625 C2.77929688 3.27503906 1.68359375 2.98757812 0.5546875 2.69140625 C-0.28835938 2.46324219 -1.13140625 2.23507813 -2 2 C-1.34 1.34 -0.68 0.68 0 0 Z " fill="#8E8E8E" transform="translate(302,18)"/>
<path d="M0 0 C0.66 0 1.32 0 2 0 C2 2.31 2 4.62 2 7 C1.34 7 0.68 7 0 7 C-0.33 8.32 -0.66 9.64 -1 11 C-0.67 7.37 -0.34 3.74 0 0 Z " fill="#646464" transform="translate(309,225)"/>
<path d="M0 0 C0.79921875 0.00902344 1.5984375 0.01804688 2.421875 0.02734375 C3.02515625 0.03894531 3.6284375 0.05054688 4.25 0.0625 C4.25 0.3925 4.25 0.7225 4.25 1.0625 C2.4246875 1.248125 2.4246875 1.248125 0.5625 1.4375 C-2.81479059 1.85141306 -5.64756695 2.60823451 -8.75 4.0625 C-8.75 3.0725 -8.75 2.0825 -8.75 1.0625 C-5.75519083 0.1901588 -3.11424089 -0.04579766 0 0 Z " fill="#7B7B7B" transform="translate(332.75,201.9375)"/>
<path d="M0 0 C1.24546405 2.49092811 0.7767578 3.41080733 0 6 C-0.66 6 -1.32 6 -2 6 C-2 6.66 -2 7.32 -2 8 C-2.99 8.33 -3.98 8.66 -5 9 C-3.7508258 5.54074837 -2.32472205 2.85306797 0 0 Z " fill="#626263" transform="translate(192,190)"/>
<path d="M0 0 C0 0.66 0 1.32 0 2 C1.98 2 3.96 2 6 2 C6 2.33 6 2.66 6 3 C1.1666528 3.08333357 -3.23692563 2.95261487 -8 2 C-8 1.67 -8 1.34 -8 1 C-5.23735711 0.40267181 -2.83967231 0 0 0 Z " fill="#828182" transform="translate(262,449)"/>
<path d="M0 0 C3.45925163 1.2491742 6.14693203 2.67527795 9 5 C7.35 5.33 5.7 5.66 4 6 C3.34 4.68 2.68 3.36 2 2 C1.34 2 0.68 2 0 2 C0 1.34 0 0.68 0 0 Z " fill="#4F4F4F" transform="translate(186,406)"/>
<path d="M0 0 C2.1723491 3.25852365 4.07119658 6.59244728 6 10 C4.125 9.8125 4.125 9.8125 2 9 C0.21715186 5.70173093 0 3.8225249 0 0 Z " fill="#515151" transform="translate(263,386)"/>
<path d="M0 0 C0.66 0.33 1.32 0.66 2 1 C0.68 3.64 -0.64 6.28 -2 9 C-2.66 7.68 -3.32 6.36 -4 5 C-2.68 3.35 -1.36 1.7 0 0 Z " fill="#404040" transform="translate(470,362)"/>
<path d="M0 0 C0 0.33 0 0.66 0 1 C-1.98 1 -3.96 1 -6 1 C-6 1.66 -6 2.32 -6 3 C-7.98 3.33 -9.96 3.66 -12 4 C-8.07829422 -0.09996514 -5.68430095 -0.10526483 0 0 Z " fill="#949494" transform="translate(252,232)"/>
<path d="M0 0 C2.33524782 2.25740623 4.18705073 4.2805761 6 7 C6 7.99 6 8.98 6 10 C5.34 10 4.68 10 4 10 C2.27735506 6.70450534 0.70554068 3.66881155 0 0 Z " fill="#565656" transform="translate(274,220)"/>
<path d="M0 0 C1.12377697 3.30435084 0.89554742 5.0506862 -0.4375 8.25 C-0.72496094 8.95640625 -1.01242188 9.6628125 -1.30859375 10.390625 C-1.53675781 10.92171875 -1.76492187 11.4528125 -2 12 C-2.33 12 -2.66 12 -3 12 C-3.43200679 7.24792529 -1.98489083 4.21789302 0 0 Z " fill="#5A5A5A" transform="translate(18,152)"/>
<path d="M0 0 C0 0.66 0 1.32 0 2 C-0.99 2 -1.98 2 -3 2 C-3.33 2.99 -3.66 3.98 -4 5 C-5.65 5.33 -7.3 5.66 -9 6 C-3.15384615 0 -3.15384615 0 0 0 Z " fill="#565656" transform="translate(118,36)"/>
<path d="M0 0 C-3.6441774 2.4294516 -5.71241272 2.16179575 -10 2 C-6.80505194 -1.19494806 -4.22040044 -1.35655728 0 0 Z " fill="#595959" transform="translate(342,257)"/>
<path d="M0 0 C0.66 0 1.32 0 2 0 C2.66 2.97 3.32 5.94 4 9 C0.06153846 5.67692308 0.06153846 5.67692308 -0.25 2.25 C-0.1675 1.5075 -0.085 0.765 0 0 Z " fill="#6E6E6E" transform="translate(323,245)"/>
<path d="M0 0 C1.258125 -0.04125 2.51625 -0.0825 3.8125 -0.125 C4.52019531 -0.14820313 5.22789062 -0.17140625 5.95703125 -0.1953125 C8 0 8 0 11 2 C10.67 2.66 10.34 3.32 10 4 C6.7 3.01 3.4 2.02 0 1 C0 0.67 0 0.34 0 0 Z " fill="#7C7C7C" transform="translate(330,225)"/>
<path d="M0 0 C1.65 0 3.3 0 5 0 C5.33 0.66 5.66 1.32 6 2 C4.68 1.67 3.36 1.34 2 1 C2.33 2.65 2.66 4.3 3 6 C2.01 5.67 1.02 5.34 0 5 C0 3.35 0 1.7 0 0 Z " fill="#696969" transform="translate(350,208)"/>
<path d="M0 0 C0.66 0 1.32 0 2 0 C0.66666667 3.33333333 -0.66666667 6.66666667 -2 10 C-3.39195915 5.82412255 -1.82323219 3.86525224 0 0 Z " fill="#5F5F5F" transform="translate(359,401)"/>
<path d="M0 0 C3.3 0 6.6 0 10 0 C9.67 0.66 9.34 1.32 9 2 C7.63875 1.9690625 7.63875 1.9690625 6.25 1.9375 C3.57327412 1.9889755 1.53011948 2.2215017 -1 3 C-0.67 2.01 -0.34 1.02 0 0 Z " fill="#525252" transform="translate(289,240)"/>
<path d="" fill="#FFFFFF" transform="translate(0,0)"/>
<path d="" fill="#FFFFFF" transform="translate(0,0)"/>
<path d="" fill="#FFFFFF" transform="translate(0,0)"/>
<path d="" fill="#FFFFFF" transform="translate(0,0)"/>
<path d="" fill="#FFFFFF" transform="translate(0,0)"/>
<path d="" fill="#FFFFFF" transform="translate(0,0)"/>
<path d="" fill="#FFFFFF" transform="translate(0,0)"/>
<path d="" fill="#FFFFFF" transform="translate(0,0)"/>
<path d="" fill="#FFFFFF" transform="translate(0,0)"/>
<path d="" fill="#FFFFFF" transform="translate(0,0)"/>
<path d="" fill="#FFFFFF" transform="translate(0,0)"/>
<path d="" fill="#FFFFFF" transform="translate(0,0)"/>
<path d="" fill="#FFFFFF" transform="translate(0,0)"/>
<path d="" fill="#FFFFFF" transform="translate(0,0)"/>
<path d="" fill="#FFFFFF" transform="translate(0,0)"/>
<path d="" fill="#FFFFFF" transform="translate(0,0)"/>
<path d="" fill="#FFFFFF" transform="translate(0,0)"/>
<path d="" fill="#FFFFFF" transform="translate(0,0)"/>
<path d="" fill="#FFFFFF" transform="translate(0,0)"/>
<path d="" fill="#FFFFFF" transform="translate(0,0)"/>
<path d="" fill="#FFFFFF" transform="translate(0,0)"/>
<path d="" fill="#FFFFFF" transform="translate(0,0)"/>
<path d="" fill="#FFFFFF" transform="translate(0,0)"/>
<path d="" fill="#FFFFFF" transform="translate(0,0)"/>
<path d="" fill="#FFFFFF" transform="translate(0,0)"/>
<path d="" fill="#FFFFFF" transform="translate(0,0)"/>
<path d="" fill="#FFFFFF" transform="translate(0,0)"/>
<path d="" fill="#FFFFFF" transform="translate(0,0)"/>
<path d="" fill="#FFFFFF" transform="translate(0,0)"/>
<path d="" fill="#FFFFFF" transform="translate(0,0)"/>
<path d="" fill="#FFFFFF" transform="translate(0,0)"/>
<path d="" fill="#FFFFFF" transform="translate(0,0)"/>
<path d="" fill="#FFFFFF" transform="translate(0,0)"/>
<path d="" fill="#FFFFFF" transform="translate(0,0)"/>
<path d="" fill="#FFFFFF" transform="translate(0,0)"/>
<path d="" fill="#FFFFFF" transform="translate(0,0)"/>
<path d="" fill="#FFFFFF" transform="translate(0,0)"/>
<path d="" fill="#FFFFFF" transform="translate(0,0)"/>
<path d="" fill="#FFFFFF" transform="translate(0,0)"/>
<path d="" fill="#FFFFFF" transform="translate(0,0)"/>
<path d="" fill="#FFFFFF" transform="translate(0,0)"/>
<path d="" fill="#FFFFFF" transform="translate(0,0)"/>
<path d="" fill="#FFFFFF" transform="translate(0,0)"/>
<path d="" fill="#FFFFFF" transform="translate(0,0)"/>
<path d="" fill="#FFFFFF" transform="translate(0,0)"/>
<path d="" fill="#FFFFFF" transform="translate(0,0)"/>
<path d="" fill="#FFFFFF" transform="translate(0,0)"/>
<path d="" fill="#FFFFFF" transform="translate(0,0)"/>
<path d="" fill="#FFFFFF" transform="translate(0,0)"/>
<path d="" fill="#FFFFFF" transform="translate(0,0)"/>
<path d="" fill="#FFFFFF" transform="translate(0,0)"/>
<path d="" fill="#FFFFFF" transform="translate(0,0)"/>
<path d="" fill="#FFFFFF" transform="translate(0,0)"/>
<path d="" fill="#FFFFFF" transform="translate(0,0)"/>
<path d="" fill="#FFFFFF" transform="translate(0,0)"/>
<path d="" fill="#FFFFFF" transform="translate(0,0)"/>
</svg>
